<svg width="755" height="190" viewBox="0 0 755 190" fill="none" xmlns="http://www.w3.org/2000/svg">
<mask id="path-1-outside-1_30_3914" maskUnits="userSpaceOnUse" x="17" y="38" width="731" height="117" fill="black">
<rect fill="white" x="17" y="38" width="731" height="117"/>
<path d="M20.9102 149V44H68.9102C78.5102 44 86.7602 45.55 93.6602 48.65C100.66 51.75 106.06 56.25 109.86 62.15C113.66 67.95 115.56 74.85 115.56 82.85C115.56 90.75 113.66 97.6 109.86 103.4C106.06 109.2 100.66 113.7 93.6602 116.9C86.7602 120 78.5102 121.55 68.9102 121.55H37.4102L50.6102 108.65V149H20.9102ZM50.6102 111.8L37.4102 98.15H67.1102C73.3102 98.15 77.9102 96.8 80.9102 94.1C84.0102 91.4 85.5602 87.65 85.5602 82.85C85.5602 77.95 84.0102 74.15 80.9102 71.45C77.9102 68.75 73.3102 67.4 67.1102 67.4H37.4102L50.6102 53.75V111.8ZM130.041 149V44H178.041C187.641 44 195.891 45.55 202.791 48.65C209.791 51.75 215.191 56.25 218.991 62.15C222.791 67.95 224.691 74.85 224.691 82.85C224.691 90.75 222.791 97.6 218.991 103.4C215.191 109.1 209.791 113.5 202.791 116.6C195.891 119.6 187.641 121.1 178.041 121.1H146.541L159.741 108.65V149H130.041ZM194.991 149L168.891 110.75H200.541L226.791 149H194.991ZM159.741 111.8L146.541 98.15H176.241C182.441 98.15 187.041 96.8 190.041 94.1C193.141 91.4 194.691 87.65 194.691 82.85C194.691 77.95 193.141 74.15 190.041 71.45C187.041 68.75 182.441 67.4 176.241 67.4H146.541L159.741 53.75V111.8ZM294.026 151.1C285.626 151.1 277.876 149.75 270.776 147.05C263.676 144.35 257.476 140.55 252.176 135.65C246.976 130.65 242.926 124.85 240.026 118.25C237.126 111.65 235.676 104.4 235.676 96.5C235.676 88.6 237.126 81.35 240.026 74.75C242.926 68.15 246.976 62.4 252.176 57.5C257.476 52.5 263.676 48.65 270.776 45.95C277.876 43.25 285.626 41.9 294.026 41.9C302.526 41.9 310.276 43.25 317.276 45.95C324.376 48.65 330.526 52.5 335.726 57.5C340.926 62.4 344.976 68.15 347.876 74.75C350.876 81.35 352.376 88.6 352.376 96.5C352.376 104.4 350.876 111.7 347.876 118.4C344.976 125 340.926 130.75 335.726 135.65C330.526 140.55 324.376 144.35 317.276 147.05C310.276 149.75 302.526 151.1 294.026 151.1ZM294.026 126.5C298.026 126.5 301.726 125.8 305.126 124.4C308.626 123 311.626 121 314.126 118.4C316.726 115.7 318.726 112.5 320.126 108.8C321.626 105.1 322.376 101 322.376 96.5C322.376 91.9 321.626 87.8 320.126 84.2C318.726 80.5 316.726 77.35 314.126 74.75C311.626 72.05 308.626 70 305.126 68.6C301.726 67.2 298.026 66.5 294.026 66.5C290.026 66.5 286.276 67.2 282.776 68.6C279.376 70 276.376 72.05 273.776 74.75C271.276 77.35 269.276 80.5 267.776 84.2C266.376 87.8 265.676 91.9 265.676 96.5C265.676 101 266.376 105.1 267.776 108.8C269.276 112.5 271.276 115.7 273.776 118.4C276.376 121 279.376 123 282.776 124.4C286.276 125.8 290.026 126.5 294.026 126.5ZM388.684 151.1C380.984 151.1 373.984 149.8 367.684 147.2C361.484 144.5 356.334 140.65 352.234 135.65L368.434 116.45C371.234 120.05 374.134 122.8 377.134 124.7C380.134 126.5 383.284 127.4 386.584 127.4C395.384 127.4 399.784 122.3 399.784 112.1V66.95H363.484V44H429.184V110.3C429.184 124 425.734 134.25 418.834 141.05C411.934 147.75 401.884 151.1 388.684 151.1ZM476.53 84.65H525.28V106.85H476.53V84.65ZM478.63 126.05H533.53V149H449.23V44H531.58V66.95H478.63V126.05ZM602.362 151.1C594.062 151.1 586.362 149.8 579.262 147.2C572.262 144.5 566.162 140.7 560.962 135.8C555.862 130.9 551.862 125.15 548.962 118.55C546.062 111.85 544.612 104.5 544.612 96.5C544.612 88.5 546.062 81.2 548.962 74.6C551.862 67.9 555.862 62.1 560.962 57.2C566.162 52.3 572.262 48.55 579.262 45.95C586.362 43.25 594.062 41.9 602.362 41.9C612.062 41.9 620.712 43.6 628.312 47C636.012 50.4 642.412 55.3 647.512 61.7L628.612 78.8C625.212 74.8 621.462 71.75 617.362 69.65C613.362 67.55 608.862 66.5 603.862 66.5C599.562 66.5 595.612 67.2 592.012 68.6C588.412 70 585.312 72.05 582.712 74.75C580.212 77.35 578.212 80.5 576.712 84.2C575.312 87.9 574.612 92 574.612 96.5C574.612 101 575.312 105.1 576.712 108.8C578.212 112.5 580.212 115.7 582.712 118.4C585.312 121 588.412 123 592.012 124.4C595.612 125.8 599.562 126.5 603.862 126.5C608.862 126.5 613.362 125.45 617.362 123.35C621.462 121.25 625.212 118.2 628.612 114.2L647.512 131.3C642.412 137.6 636.012 142.5 628.312 146C620.712 149.4 612.062 151.1 602.362 151.1ZM682.225 149V67.55H649.975V44H744.025V67.55H711.925V149H682.225Z"/>
</mask>
<path d="M20.9102 149H17.9102V152H20.9102V149ZM20.9102 44V41H17.9102V44H20.9102ZM93.6602 48.65L92.4307 51.3865L92.438 51.3898L92.4454 51.393L93.6602 48.65ZM109.86 62.15L107.338 63.7744L107.344 63.7843L107.351 63.7941L109.86 62.15ZM109.86 103.4L112.37 105.044L112.37 105.044L109.86 103.4ZM93.6602 116.9L94.8896 119.637L94.8985 119.632L94.9074 119.628L93.6602 116.9ZM37.4102 121.55L35.3134 119.404L30.0481 124.55H37.4102V121.55ZM50.6102 108.65H53.6102V101.523L48.5134 106.504L50.6102 108.65ZM50.6102 149V152H53.6102V149H50.6102ZM50.6102 111.8L48.4536 113.885L53.6102 119.218V111.8H50.6102ZM37.4102 98.15V95.15H30.3358L35.2536 100.235L37.4102 98.15ZM80.9102 94.1L78.9398 91.8377L78.9214 91.8538L78.9033 91.8701L80.9102 94.1ZM80.9102 71.45L78.9033 73.6799L78.9214 73.6962L78.9398 73.7122L80.9102 71.45ZM37.4102 67.4L35.2536 65.3145L30.3358 70.4H37.4102V67.4ZM50.6102 53.75H53.6102V46.3322L48.4536 51.6645L50.6102 53.75ZM23.9102 149V44H17.9102V149H23.9102ZM20.9102 47H68.9102V41H20.9102V47ZM68.9102 47C78.1964 47 86.0065 48.5003 92.4307 51.3865L94.8896 45.9135C87.5138 42.5997 78.8239 41 68.9102 41V47ZM92.4454 51.393C98.9605 54.2783 103.884 58.4116 107.338 63.7744L112.382 60.5256C108.236 54.0884 102.36 49.2217 94.8749 45.9069L92.4454 51.393ZM107.351 63.7941C110.784 69.0338 112.56 75.342 112.56 82.85H118.56C118.56 74.358 116.537 66.8662 112.37 60.5059L107.351 63.7941ZM112.56 82.85C112.56 90.2496 110.788 96.5101 107.351 101.756L112.37 105.044C116.533 98.6899 118.56 91.2504 118.56 82.85H112.56ZM107.351 101.756C103.894 107.032 98.9568 111.18 92.4129 114.172L94.9074 119.628C102.364 116.22 108.226 111.368 112.37 105.044L107.351 101.756ZM92.4307 114.163C86.0065 117.05 78.1964 118.55 68.9102 118.55V124.55C78.8239 124.55 87.5138 122.95 94.8896 119.637L92.4307 114.163ZM68.9102 118.55H37.4102V124.55H68.9102V118.55ZM39.507 123.696L52.707 110.796L48.5134 106.504L35.3134 119.404L39.507 123.696ZM47.6102 108.65V149H53.6102V108.65H47.6102ZM50.6102 146H20.9102V152H50.6102V146ZM52.7667 109.715L39.5667 96.0645L35.2536 100.235L48.4536 113.885L52.7667 109.715ZM37.4102 101.15H67.1102V95.15H37.4102V101.15ZM67.1102 101.15C73.6683 101.15 79.1359 99.733 82.9171 96.3299L78.9033 91.8701C76.6845 93.867 72.952 95.15 67.1102 95.15V101.15ZM82.8805 96.3622C86.7467 92.9949 88.5602 88.3569 88.5602 82.85H82.5602C82.5602 86.9431 81.2736 89.8051 78.9398 91.8377L82.8805 96.3622ZM88.5602 82.85C88.5602 77.2652 86.7609 72.5674 82.8805 69.1878L78.9398 73.7122C81.2595 75.7326 82.5602 78.6348 82.5602 82.85H88.5602ZM82.9171 69.2201C79.1359 65.817 73.6683 64.4 67.1102 64.4V70.4C72.952 70.4 76.6845 71.683 78.9033 73.6799L82.9171 69.2201ZM67.1102 64.4H37.4102V70.4H67.1102V64.4ZM39.5667 69.4855L52.7667 55.8355L48.4536 51.6645L35.2536 65.3145L39.5667 69.4855ZM47.6102 53.75V111.8H53.6102V53.75H47.6102ZM130.041 149H127.041V152H130.041V149ZM130.041 44V41H127.041V44H130.041ZM202.791 48.65L201.562 51.3865L201.569 51.3898L201.576 51.393L202.791 48.65ZM218.991 62.15L216.469 63.7744L216.475 63.7843L216.482 63.7941L218.991 62.15ZM218.991 103.4L221.487 105.064L221.494 105.054L221.5 105.044L218.991 103.4ZM202.791 116.6L203.987 119.351L203.997 119.347L204.006 119.343L202.791 116.6ZM146.541 121.1L144.483 118.918L138.988 124.1H146.541V121.1ZM159.741 108.65H162.741V101.697L157.683 106.468L159.741 108.65ZM159.741 149V152H162.741V149H159.741ZM194.991 149L192.513 150.691L193.406 152H194.991V149ZM168.891 110.75V107.75H163.212L166.413 112.441L168.891 110.75ZM200.541 110.75L203.015 109.052L202.121 107.75H200.541V110.75ZM226.791 149V152H232.488L229.265 147.302L226.791 149ZM159.741 111.8L157.584 113.885L162.741 119.218V111.8H159.741ZM146.541 98.15V95.15H139.467L144.384 100.235L146.541 98.15ZM190.041 94.1L188.071 91.8377L188.052 91.8538L188.034 91.8701L190.041 94.1ZM190.041 71.45L188.034 73.6799L188.052 73.6962L188.071 73.7122L190.041 71.45ZM146.541 67.4L144.384 65.3145L139.467 70.4H146.541V67.4ZM159.741 53.75H162.741V46.3322L157.584 51.6645L159.741 53.75ZM133.041 149V44H127.041V149H133.041ZM130.041 47H178.041V41H130.041V47ZM178.041 47C187.327 47 195.137 48.5003 201.562 51.3865L204.02 45.9135C196.645 42.5997 187.955 41 178.041 41V47ZM201.576 51.393C208.091 54.2783 213.015 58.4116 216.469 63.7744L221.513 60.5256C217.367 54.0884 211.491 49.2217 204.006 45.9069L201.576 51.393ZM216.482 63.7941C219.915 69.0338 221.691 75.342 221.691 82.85H227.691C227.691 74.358 225.667 66.8662 221.5 60.5059L216.482 63.7941ZM221.691 82.85C221.691 90.2496 219.919 96.5101 216.482 101.756L221.5 105.044C225.664 98.6899 227.691 91.2504 227.691 82.85H221.691ZM216.495 101.736C213.047 106.908 208.118 110.96 201.576 113.857L204.006 119.343C211.464 116.04 217.335 111.292 221.487 105.064L216.495 101.736ZM201.595 113.849C195.161 116.646 187.339 118.1 178.041 118.1V124.1C187.943 124.1 196.621 122.554 203.987 119.351L201.595 113.849ZM178.041 118.1H146.541V124.1H178.041V118.1ZM148.599 123.282L161.799 110.832L157.683 106.468L144.483 118.918L148.599 123.282ZM156.741 108.65V149H162.741V108.65H156.741ZM159.741 146H130.041V152H159.741V146ZM197.469 147.309L171.369 109.059L166.413 112.441L192.513 150.691L197.469 147.309ZM168.891 113.75H200.541V107.75H168.891V113.75ZM198.067 112.448L224.317 150.698L229.265 147.302L203.015 109.052L198.067 112.448ZM226.791 146H194.991V152H226.791V146ZM161.898 109.715L148.698 96.0645L144.384 100.235L157.584 113.885L161.898 109.715ZM146.541 101.15H176.241V95.15H146.541V101.15ZM176.241 101.15C182.799 101.15 188.267 99.733 192.048 96.3299L188.034 91.8701C185.815 93.867 182.083 95.15 176.241 95.15V101.15ZM192.011 96.3622C195.878 92.9949 197.691 88.3569 197.691 82.85H191.691C191.691 86.9431 190.404 89.8051 188.071 91.8377L192.011 96.3622ZM197.691 82.85C197.691 77.2652 195.892 72.5674 192.011 69.1878L188.071 73.7122C190.39 75.7326 191.691 78.6348 191.691 82.85H197.691ZM192.048 69.2201C188.267 65.817 182.799 64.4 176.241 64.4V70.4C182.083 70.4 185.815 71.683 188.034 73.6799L192.048 69.2201ZM176.241 64.4H146.541V70.4H176.241V64.4ZM148.698 69.4855L161.898 55.8355L157.584 51.6645L144.384 65.3145L148.698 69.4855ZM156.741 53.75V111.8H162.741V53.75H156.741ZM270.776 147.05L269.71 149.854L269.71 149.854L270.776 147.05ZM252.176 135.65L250.097 137.812L250.118 137.833L250.14 137.853L252.176 135.65ZM240.026 118.25L237.28 119.457L237.28 119.457L240.026 118.25ZM240.026 74.75L237.28 73.5432L237.28 73.5432L240.026 74.75ZM252.176 57.5L254.234 59.6834L254.235 59.6822L252.176 57.5ZM270.776 45.95L269.71 43.1459L269.71 43.1459L270.776 45.95ZM317.276 45.95L316.197 48.749L316.203 48.7516L316.21 48.7541L317.276 45.95ZM335.726 57.5L333.647 59.6625L333.658 59.673L333.669 59.6834L335.726 57.5ZM347.876 74.75L345.13 75.9568L345.137 75.9742L345.145 75.9914L347.876 74.75ZM347.876 118.4L345.138 117.174L345.134 117.184L345.13 117.193L347.876 118.4ZM335.726 135.65L337.784 137.833L337.784 137.833L335.726 135.65ZM317.276 147.05L316.21 144.246L316.203 144.248L316.197 144.251L317.276 147.05ZM305.126 124.4L304.012 121.615L303.998 121.62L303.984 121.626L305.126 124.4ZM314.126 118.4L311.965 116.319L311.964 116.321L314.126 118.4ZM320.126 108.8L317.346 107.673L317.333 107.705L317.32 107.738L320.126 108.8ZM320.126 84.2L317.32 85.2617L317.338 85.3081L317.357 85.3538L320.126 84.2ZM314.126 74.75L311.925 76.7882L311.964 76.8305L312.005 76.8713L314.126 74.75ZM305.126 68.6L303.984 71.374L303.998 71.3798L304.012 71.3854L305.126 68.6ZM282.776 68.6L281.662 65.8146L281.648 65.8202L281.634 65.826L282.776 68.6ZM273.776 74.75L271.615 72.6691L271.614 72.6707L273.776 74.75ZM267.776 84.2L264.996 83.0729L264.988 83.0927L264.98 83.1127L267.776 84.2ZM267.776 108.8L264.97 109.862L264.983 109.895L264.996 109.927L267.776 108.8ZM273.776 118.4L271.575 120.438L271.614 120.481L271.655 120.521L273.776 118.4ZM282.776 124.4L281.634 127.174L281.648 127.18L281.662 127.185L282.776 124.4ZM294.026 148.1C285.952 148.1 278.568 146.803 271.843 144.246L269.71 149.854C277.185 152.697 285.3 154.1 294.026 154.1V148.1ZM271.843 144.246C265.082 141.675 259.216 138.073 254.213 133.447L250.14 137.853C255.736 143.027 262.27 147.025 269.71 149.854L271.843 144.246ZM254.255 133.488C249.338 128.759 245.515 123.284 242.773 117.043L237.28 119.457C240.338 126.416 244.614 132.541 250.097 137.812L254.255 133.488ZM242.773 117.043C240.055 110.859 238.676 104.025 238.676 96.5H232.676C232.676 104.775 234.197 112.441 237.28 119.457L242.773 117.043ZM238.676 96.5C238.676 88.9753 240.055 82.1413 242.773 75.9568L237.28 73.5432C234.197 80.5587 232.676 88.2247 232.676 96.5H238.676ZM242.773 75.9568C245.512 69.7219 249.329 64.3048 254.234 59.6834L250.119 55.3166C244.623 60.4952 240.34 66.5781 237.28 73.5432L242.773 75.9568ZM254.235 59.6822C259.236 54.9641 265.095 51.32 271.843 48.7541L269.71 43.1459C262.257 45.9799 255.716 50.0359 250.118 55.3178L254.235 59.6822ZM271.843 48.7541C278.568 46.1966 285.952 44.9 294.026 44.9V38.9C285.3 38.9 277.185 40.3034 269.71 43.1459L271.843 48.7541ZM294.026 44.9C302.206 44.9 309.584 46.1983 316.197 48.749L318.356 43.151C310.969 40.3017 302.847 38.9 294.026 38.9V44.9ZM316.21 48.7541C322.953 51.3183 328.753 54.957 333.647 59.6625L337.806 55.3375C332.299 50.0429 325.8 45.9817 318.343 43.1459L316.21 48.7541ZM333.669 59.6834C338.573 64.3048 342.39 69.7219 345.13 75.9568L350.623 73.5432C347.562 66.5781 343.279 60.4952 337.784 55.3166L333.669 59.6834ZM345.145 75.9914C347.952 82.1676 349.376 88.9894 349.376 96.5H355.376C355.376 88.2106 353.8 80.5323 350.607 73.5086L345.145 75.9914ZM349.376 96.5C349.376 104.01 347.953 110.888 345.138 117.174L350.614 119.626C353.8 112.512 355.376 104.79 355.376 96.5H349.376ZM345.13 117.193C342.39 123.428 338.573 128.845 333.669 133.467L337.784 137.833C343.279 132.655 347.562 126.572 350.623 119.607L345.13 117.193ZM333.669 133.467C328.773 138.08 322.965 141.677 316.21 144.246L318.343 149.854C325.787 147.023 332.279 143.02 337.784 137.833L333.669 133.467ZM316.197 144.251C309.584 146.802 302.206 148.1 294.026 148.1V154.1C302.847 154.1 310.969 152.698 318.356 149.849L316.197 144.251ZM294.026 129.5C298.383 129.5 302.475 128.736 306.268 127.174L303.984 121.626C300.977 122.864 297.669 123.5 294.026 123.5V129.5ZM306.24 127.185C310.118 125.634 313.48 123.4 316.289 120.479L311.964 116.321C309.772 118.6 307.135 120.366 304.012 121.615L306.24 127.185ZM316.287 120.481C319.184 117.472 321.396 113.92 322.932 109.862L317.32 107.738C316.056 111.08 314.268 113.928 311.965 116.319L316.287 120.481ZM322.906 109.927C324.569 105.826 325.376 101.337 325.376 96.5H319.376C319.376 100.663 318.683 104.374 317.346 107.673L322.906 109.927ZM325.376 96.5C325.376 91.5739 324.573 87.0712 322.895 83.0461L317.357 85.3538C318.68 88.5288 319.376 92.2261 319.376 96.5H325.376ZM322.932 83.1383C321.393 79.0712 319.171 75.5517 316.248 72.6287L312.005 76.8713C314.282 79.1483 316.059 81.9288 317.32 85.2617L322.932 83.1383ZM316.327 72.7118C313.517 69.677 310.143 67.3757 306.24 65.8146L304.012 71.3854C307.109 72.6243 309.735 74.423 311.925 76.7882L316.327 72.7118ZM306.268 65.826C302.475 64.2641 298.383 63.5 294.026 63.5V69.5C297.669 69.5 300.977 70.1359 303.984 71.374L306.268 65.826ZM294.026 63.5C289.668 63.5 285.538 64.2643 281.662 65.8146L283.89 71.3854C287.015 70.1357 290.384 69.5 294.026 69.5V63.5ZM281.634 65.826C277.842 67.3872 274.497 69.676 271.615 72.6691L275.937 76.8309C278.255 74.424 280.91 72.6128 283.918 71.374L281.634 65.826ZM271.614 72.6707C268.822 75.5738 266.624 79.0569 264.996 83.0729L270.556 85.3271C271.928 81.9431 273.73 79.1261 275.939 76.8293L271.614 72.6707ZM264.98 83.1127C263.422 87.1186 262.676 91.5975 262.676 96.5H268.676C268.676 92.2025 269.33 88.4814 270.572 85.2873L264.98 83.1127ZM262.676 96.5C262.676 101.313 263.426 105.779 264.97 109.862L270.582 107.738C269.327 104.421 268.676 100.687 268.676 96.5H262.676ZM264.996 109.927C266.621 113.935 268.808 117.45 271.575 120.438L275.977 116.362C273.744 113.95 271.932 111.065 270.556 107.673L264.996 109.927ZM271.655 120.521C274.535 123.401 277.868 125.623 281.634 127.174L283.918 121.626C280.885 120.377 278.217 118.599 275.897 116.279L271.655 120.521ZM281.662 127.185C285.538 128.736 289.668 129.5 294.026 129.5V123.5C290.384 123.5 287.015 122.864 283.89 121.615L281.662 127.185ZM367.684 147.2L366.487 149.951L366.513 149.962L366.54 149.973L367.684 147.2ZM352.234 135.65L349.942 133.715L348.332 135.623L349.915 137.552L352.234 135.65ZM368.434 116.45L370.802 114.608L368.529 111.685L366.142 114.515L368.434 116.45ZM377.134 124.7L375.529 127.234L375.56 127.254L375.591 127.272L377.134 124.7ZM399.784 66.95H402.784V63.95H399.784V66.95ZM363.484 66.95H360.484V69.95H363.484V66.95ZM363.484 44V41H360.484V44H363.484ZM429.184 44H432.184V41H429.184V44ZM418.834 141.05L420.924 143.202L420.932 143.195L420.94 143.187L418.834 141.05ZM388.684 148.1C381.326 148.1 374.722 146.859 368.829 144.427L366.54 149.973C373.247 152.741 380.642 154.1 388.684 154.1V148.1ZM368.882 144.449C363.098 141.93 358.339 138.363 354.554 133.748L349.915 137.552C354.33 142.937 359.871 147.07 366.487 149.951L368.882 144.449ZM354.527 137.585L370.727 118.385L366.142 114.515L349.942 133.715L354.527 137.585ZM366.066 118.292C369.021 122.091 372.167 125.105 375.529 127.234L378.74 122.166C376.102 120.495 373.447 118.009 370.802 114.608L366.066 118.292ZM375.591 127.272C379.028 129.335 382.708 130.4 386.584 130.4V124.4C383.861 124.4 381.241 123.665 378.678 122.128L375.591 127.272ZM386.584 130.4C391.572 130.4 395.823 128.934 398.756 125.535C401.616 122.22 402.784 117.563 402.784 112.1H396.784C396.784 116.837 395.753 119.83 394.213 121.615C392.746 123.316 390.397 124.4 386.584 124.4V130.4ZM402.784 112.1V66.95H396.784V112.1H402.784ZM399.784 63.95H363.484V69.95H399.784V63.95ZM366.484 66.95V44H360.484V66.95H366.484ZM363.484 47H429.184V41H363.484V47ZM426.184 44V110.3H432.184V44H426.184ZM426.184 110.3C426.184 123.534 422.854 132.876 416.729 138.913L420.94 143.187C428.614 135.624 432.184 124.466 432.184 110.3H426.184ZM416.744 138.898C410.586 144.878 401.4 148.1 388.684 148.1V154.1C402.369 154.1 413.283 150.622 420.924 143.202L416.744 138.898ZM476.53 84.65V81.65H473.53V84.65H476.53ZM525.28 84.65H528.28V81.65H525.28V84.65ZM525.28 106.85V109.85H528.28V106.85H525.28ZM476.53 106.85H473.53V109.85H476.53V106.85ZM478.63 126.05H475.63V129.05H478.63V126.05ZM533.53 126.05H536.53V123.05H533.53V126.05ZM533.53 149V152H536.53V149H533.53ZM449.23 149H446.23V152H449.23V149ZM449.23 44V41H446.23V44H449.23ZM531.58 44H534.58V41H531.58V44ZM531.58 66.95V69.95H534.58V66.95H531.58ZM478.63 66.95V63.95H475.63V66.95H478.63ZM476.53 87.65H525.28V81.65H476.53V87.65ZM522.28 84.65V106.85H528.28V84.65H522.28ZM525.28 103.85H476.53V109.85H525.28V103.85ZM479.53 106.85V84.65H473.53V106.85H479.53ZM478.63 129.05H533.53V123.05H478.63V129.05ZM530.53 126.05V149H536.53V126.05H530.53ZM533.53 146H449.23V152H533.53V146ZM452.23 149V44H446.23V149H452.23ZM449.23 47H531.58V41H449.23V47ZM528.58 44V66.95H534.58V44H528.58ZM531.58 63.95H478.63V69.95H531.58V63.95ZM475.63 66.95V126.05H481.63V66.95H475.63ZM579.262 147.2L578.182 149.999L578.206 150.008L578.23 150.017L579.262 147.2ZM560.962 135.8L558.883 137.963L558.894 137.973L558.904 137.983L560.962 135.8ZM548.962 118.55L546.209 119.742L546.212 119.749L546.215 119.757L548.962 118.55ZM548.962 74.6L551.708 75.8068L551.712 75.7993L551.715 75.7917L548.962 74.6ZM560.962 57.2L558.904 55.0166L558.894 55.0266L558.883 55.0367L560.962 57.2ZM579.262 45.95L580.306 48.7623L580.317 48.7582L580.328 48.7541L579.262 45.95ZM628.312 47L627.087 49.7385L627.093 49.7414L627.1 49.7444L628.312 47ZM647.512 61.7L649.524 63.9246L651.614 62.0341L649.858 59.8304L647.512 61.7ZM628.612 78.8L626.326 80.7429L628.33 83.1006L630.624 81.0246L628.612 78.8ZM617.362 69.65L615.967 72.3062L615.981 72.3132L615.994 72.3201L617.362 69.65ZM592.012 68.6L593.099 71.396L593.099 71.396L592.012 68.6ZM582.712 74.75L580.551 72.6691L580.549 72.6707L582.712 74.75ZM576.712 84.2L573.932 83.0729L573.918 83.1055L573.906 83.1383L576.712 84.2ZM576.712 108.8L573.906 109.862L573.918 109.895L573.932 109.927L576.712 108.8ZM582.712 118.4L580.51 120.438L580.55 120.481L580.59 120.521L582.712 118.4ZM592.012 124.4L593.099 121.604L593.099 121.604L592.012 124.4ZM617.362 123.35L615.994 120.68L615.981 120.687L615.967 120.694L617.362 123.35ZM628.612 114.2L630.624 111.975L628.33 109.899L626.326 112.257L628.612 114.2ZM647.512 131.3L649.843 133.188L651.63 130.981L649.524 129.075L647.512 131.3ZM628.312 146L629.537 148.738L629.545 148.735L629.553 148.731L628.312 146ZM602.362 148.1C594.379 148.1 587.032 146.851 580.293 144.383L578.23 150.017C585.691 152.749 593.744 154.1 602.362 154.1V148.1ZM580.341 144.401C573.686 141.834 567.922 138.237 563.019 133.617L558.904 137.983C564.401 143.163 570.838 147.166 578.182 149.999L580.341 144.401ZM563.04 133.637C558.229 129.014 554.453 123.591 551.708 117.343L546.215 119.757C549.27 126.709 553.495 132.786 558.883 137.963L563.04 133.637ZM551.715 117.358C548.993 111.069 547.612 104.13 547.612 96.5H541.612C541.612 104.87 543.131 112.631 546.209 119.742L551.715 117.358ZM547.612 96.5C547.612 88.8697 548.993 81.9866 551.708 75.8068L546.215 73.3932C543.131 80.4134 541.612 88.1303 541.612 96.5H547.612ZM551.715 75.7917C554.462 69.4451 558.237 63.9785 563.04 59.3633L558.883 55.0367C553.487 60.2215 549.262 66.3549 546.209 73.4083L551.715 75.7917ZM563.019 59.3834C567.914 54.771 573.665 51.2289 580.306 48.7623L578.217 43.1377C570.858 45.8711 564.41 49.829 558.904 55.0166L563.019 59.3834ZM580.328 48.7541C587.057 46.1951 594.392 44.9 602.362 44.9V38.9C593.731 38.9 585.666 40.3049 578.195 43.1459L580.328 48.7541ZM602.362 44.9C611.709 44.9 619.93 46.537 627.087 49.7385L629.537 44.2615C621.493 40.663 612.415 38.9 602.362 38.9V44.9ZM627.1 49.7444C634.37 52.9545 640.376 57.5596 645.166 63.5696L649.858 59.8304C644.447 53.0404 637.654 47.8455 629.524 44.2556L627.1 49.7444ZM645.499 59.4754L626.599 76.5754L630.624 81.0246L649.524 63.9246L645.499 59.4754ZM630.898 76.857C627.278 72.5984 623.226 69.2829 618.729 66.9799L615.994 72.3201C619.698 74.2171 623.146 77.0016 626.326 80.7429L630.898 76.857ZM618.756 66.9938C614.282 64.6447 609.295 63.5 603.862 63.5V69.5C608.429 69.5 612.442 70.4553 615.967 72.3062L618.756 66.9938ZM603.862 63.5C599.232 63.5 594.908 64.2547 590.924 65.804L593.099 71.396C596.315 70.1453 599.892 69.5 603.862 69.5V63.5ZM590.924 65.804C586.932 67.3567 583.462 69.646 580.551 72.6691L584.873 76.8309C587.162 74.454 589.892 72.6433 593.099 71.396L590.924 65.804ZM580.549 72.6707C577.758 75.5738 575.56 79.0569 573.932 83.0729L579.492 85.3271C580.864 81.9431 582.666 79.1261 584.874 76.8293L580.549 72.6707ZM573.906 83.1383C572.361 87.2209 571.612 91.6867 571.612 96.5H577.612C577.612 92.3133 578.262 88.5791 579.518 85.2617L573.906 83.1383ZM571.612 96.5C571.612 101.313 572.361 105.779 573.906 109.862L579.518 107.738C578.262 104.421 577.612 100.687 577.612 96.5H571.612ZM573.932 109.927C575.556 113.935 577.744 117.45 580.51 120.438L584.913 116.362C582.68 113.95 580.867 111.065 579.492 107.673L573.932 109.927ZM580.59 120.521C583.499 123.43 586.957 125.653 590.924 127.196L593.099 121.604C589.867 120.347 587.124 118.57 584.833 116.279L580.59 120.521ZM590.924 127.196C594.908 128.745 599.232 129.5 603.862 129.5V123.5C599.892 123.5 596.315 122.855 593.099 121.604L590.924 127.196ZM603.862 129.5C609.295 129.5 614.282 128.355 618.756 126.006L615.967 120.694C612.442 122.545 608.429 123.5 603.862 123.5V129.5ZM618.729 126.02C623.226 123.717 627.278 120.402 630.898 116.143L626.326 112.257C623.146 115.998 619.698 118.783 615.994 120.68L618.729 126.02ZM626.599 116.425L645.499 133.525L649.524 129.075L630.624 111.975L626.599 116.425ZM645.18 129.412C640.386 135.335 634.365 139.953 627.07 143.269L629.553 148.731C637.658 145.047 644.438 139.865 649.843 133.188L645.18 129.412ZM627.087 143.262C619.93 146.463 611.709 148.1 602.362 148.1V154.1C612.415 154.1 621.493 152.337 629.537 148.738L627.087 143.262ZM682.225 149H679.225V152H682.225V149ZM682.225 67.55H685.225V64.55H682.225V67.55ZM649.975 67.55H646.975V70.55H649.975V67.55ZM649.975 44V41H646.975V44H649.975ZM744.025 44H747.025V41H744.025V44ZM744.025 67.55V70.55H747.025V67.55H744.025ZM711.925 67.55V64.55H708.925V67.55H711.925ZM711.925 149V152H714.925V149H711.925ZM685.225 149V67.55H679.225V149H685.225ZM682.225 64.55H649.975V70.55H682.225V64.55ZM652.975 67.55V44H646.975V67.55H652.975ZM649.975 47H744.025V41H649.975V47ZM741.025 44V67.55H747.025V44H741.025ZM744.025 64.55H711.925V70.55H744.025V64.55ZM708.925 67.55V149H714.925V67.55H708.925ZM711.925 146H682.225V152H711.925V146Z" fill="url(#paint0_linear_30_3914)" mask="url(#path-1-outside-1_30_3914)"/>
<defs>
<linearGradient id="paint0_linear_30_3914" x1="3.63885" y1="75.2129" x2="751.412" y2="75.2129" gradientUnits="userSpaceOnUse">
<stop stop-color="#FFC45F"/>
<stop offset="0.521471" stop-color="#34C7AF"/>
<stop offset="1" stop-color="#008BE7"/>
</linearGradient>
</defs>
</svg>
