<svg width="654" height="155" viewBox="0 0 654 155" fill="none" xmlns="http://www.w3.org/2000/svg">
<path d="M387.661 51.0509C387.674 59.973 394.747 67.2017 403.464 67.1883L486.482 67.0746C495.199 67.0612 502.259 59.8191 502.246 50.8969C502.233 41.9748 495.159 34.7461 486.443 34.7595L403.425 34.8666C394.708 34.8799 387.654 42.1288 387.661 51.0509Z" fill="url(#paint0_linear_29_3016)" fill-opacity="0.1"/>
<path d="M578.892 39.2121C566.049 56.5209 585.17 76.0451 602.049 62.8527C614.899 45.5372 595.771 26.013 578.892 39.2121Z" fill="url(#paint1_linear_29_3016)" fill-opacity="0.1"/>
<path d="M-0.321952 0.177175C-2.63634 -9.30718 1.90117 365.094 -0.321952 375C2.19454 374.793 13.3949 374.498 13.3949 374.498L310.217 375C318.914 374.987 326.359 368.012 326.516 359.124C326.672 350.054 319.527 342.678 310.713 342.692L295.477 342.705C286.2 342.718 278.272 334.948 278.461 325.436C278.663 315.584 286.526 307.632 296.2 307.632L360.176 307.539C369.394 307.539 377.302 300.143 377.439 290.712C377.563 281.154 370.033 273.383 360.73 273.383L166.409 273.718L109.367 273.718C100.67 273.731 93.0556 267.145 92.2276 258.276C91.2758 248.122 99.0339 239.575 108.767 239.555L161.607 239.495C170.826 239.481 178.734 232.099 178.871 222.668C179.008 213.11 171.465 205.319 162.174 205.339L153.217 205.353C145.107 205.353 138.3 198.572 138.366 190.279C138.476 179.222 147.245 170.287 158.074 170.266L190.742 170.22L336.093 170.032C344.803 170.032 352.3 163.044 352.417 154.122C352.541 145.086 345.416 137.724 336.614 137.724L186.655 137.282L140.902 137.141C130.536 137.108 122.178 128.28 122.608 117.557C122.928 109.324 129.753 102.925 137.798 102.905L176.139 102.859L357.965 102.624C367.164 102.624 375.092 95.2282 375.216 85.7974C375.353 76.2395 367.829 68.4685 358.52 68.4685L303.32 68.5489C293.026 68.5623 284.674 60.0351 284.655 49.4999C284.655 45.3367 286.298 41.5683 288.957 38.8241C291.63 36.0932 295.301 34.4065 299.369 34.3932L348.121 34.3329C357.307 34.3329 365.169 26.9703 365.326 17.5529C365.495 7.98156 357.952 0.177215 348.63 0.190601L-0.0221069 0.424838C-0.0221069 0.351213 -0.0221069 0.257534 -0.0221069 0.190601L-0.321952 0.177175Z" fill="url(#paint2_linear_29_3016)" fill-opacity="0.1"/>
<defs>
<linearGradient id="paint0_linear_29_3016" x1="496.189" y1="65.4803" x2="13.0965" y2="-12.7655" gradientUnits="userSpaceOnUse">
<stop stop-color="#F2C964"/>
<stop offset="0.219259" stop-color="#A9E479"/>
<stop offset="0.418408" stop-color="#3DCAAC"/>
<stop offset="1" stop-color="#999999"/>
<stop offset="1" stop-color="#0130FC"/>
</linearGradient>
<linearGradient id="paint1_linear_29_3016" x1="604.588" y1="65.4862" x2="468.269" y2="59.3816" gradientUnits="userSpaceOnUse">
<stop stop-color="#F2C964"/>
<stop offset="0.219259" stop-color="#A9E479"/>
<stop offset="0.418408" stop-color="#3DCAAC"/>
<stop offset="1" stop-color="#999999"/>
<stop offset="1" stop-color="#0130FC"/>
</linearGradient>
<linearGradient id="paint2_linear_29_3016" x1="424.965" y1="170.238" x2="-151.137" y2="167.513" gradientUnits="userSpaceOnUse">
<stop stop-color="#F2C964"/>
<stop offset="0.219259" stop-color="#A9E479"/>
<stop offset="0.418408" stop-color="#3DCAAC"/>
<stop offset="0.828281" stop-color="#0130FC"/>
<stop offset="1" stop-color="#999999"/>
</linearGradient>
</defs>
</svg>
