<svg width="631" height="235" viewBox="0 0 631 235" fill="none" xmlns="http://www.w3.org/2000/svg">
<path d="M266.324 51.051C266.31 59.9731 259.237 67.2018 250.52 67.1885L167.502 67.0747C158.786 67.0613 151.725 59.8192 151.738 50.8971C151.751 41.9749 158.825 34.7462 167.541 34.7596L250.56 34.8667C259.276 34.8801 266.33 42.1289 266.324 51.051Z" fill="url(#paint0_linear_29_1719)" fill-opacity="0.1"/>
<path d="M206.316 187.424C206.303 196.346 199.229 203.575 190.513 203.562L119.425 203.468C110.709 203.454 103.648 196.212 103.661 187.29C103.674 178.368 110.748 171.139 119.464 171.153L190.552 171.246C199.268 171.253 206.329 178.502 206.316 187.424Z" fill="url(#paint1_linear_29_1719)" fill-opacity="0.1"/>
<path d="M75.0925 39.2122C87.9357 56.521 68.8143 76.0452 51.9355 62.8528C39.0858 45.5373 58.2137 26.0131 75.0925 39.2122Z" fill="url(#paint2_linear_29_1719)" fill-opacity="0.1"/>
<path d="M27.3633 175.585C40.2065 192.894 21.0851 212.418 4.2063 199.226C-8.63694 181.91 10.4845 162.386 27.3633 175.585Z" fill="url(#paint3_linear_29_1719)" fill-opacity="0.1"/>
<path d="M654.306 0.177175C656.621 -9.30718 652.083 365.094 654.306 375C651.79 374.793 640.589 374.498 640.589 374.498L343.767 375C335.07 374.987 327.625 368.012 327.469 359.124C327.312 350.054 334.457 342.678 343.272 342.692L358.508 342.705C367.785 342.718 375.712 334.948 375.523 325.436C375.321 315.584 367.459 307.632 357.784 307.632L293.809 307.539C284.59 307.539 276.682 300.143 276.545 290.712C276.422 281.154 283.951 273.383 293.255 273.383L487.575 273.718L544.617 273.718C553.314 273.731 560.929 267.145 561.757 258.276C562.709 248.122 554.95 239.575 545.217 239.555L492.377 239.495C483.159 239.481 475.251 232.099 475.114 222.668C474.977 213.11 482.52 205.319 491.81 205.339L500.768 205.353C508.878 205.353 515.684 198.572 515.619 190.279C515.508 179.222 506.739 170.287 495.911 170.266L463.242 170.22L317.892 170.032C309.182 170.032 301.684 163.044 301.567 154.122C301.443 145.086 308.569 137.724 317.37 137.724L467.33 137.282L513.083 137.141C523.449 137.108 531.807 128.28 531.376 117.557C531.057 109.324 524.231 102.925 516.186 102.905L477.845 102.859L296.019 102.624C286.82 102.624 278.892 95.2282 278.769 85.7974C278.632 76.2395 286.155 68.4685 295.465 68.4685L350.665 68.5489C360.959 68.5623 369.31 60.0351 369.33 49.4999C369.33 45.3367 367.687 41.5683 365.027 38.8241C362.354 36.0932 358.684 34.4065 354.615 34.3932L305.863 34.3329C296.677 34.3329 288.815 26.9703 288.659 17.5529C288.489 7.98156 296.032 0.177215 305.355 0.190601L654.006 0.424838C654.006 0.351213 654.006 0.257534 654.006 0.190601L654.306 0.177175Z" fill="url(#paint4_linear_29_1719)" fill-opacity="0.1"/>
<defs>
<linearGradient id="paint0_linear_29_1719" x1="157.796" y1="65.4804" x2="640.888" y2="-12.7654" gradientUnits="userSpaceOnUse">
<stop stop-color="#F2C964"/>
<stop offset="0.219259" stop-color="#A9E479"/>
<stop offset="0.418408" stop-color="#3DCAAC"/>
<stop offset="1" stop-color="#999999"/>
<stop offset="1" stop-color="#0130FC"/>
</linearGradient>
<linearGradient id="paint1_linear_29_1719" x1="109.088" y1="201.854" x2="544.065" y2="138.698" gradientUnits="userSpaceOnUse">
<stop stop-color="#F2C964"/>
<stop offset="0.219259" stop-color="#A9E479"/>
<stop offset="0.418408" stop-color="#3DCAAC"/>
<stop offset="1" stop-color="#999999"/>
<stop offset="1" stop-color="#0130FC"/>
</linearGradient>
<linearGradient id="paint2_linear_29_1719" x1="49.3965" y1="65.4864" x2="185.715" y2="59.3817" gradientUnits="userSpaceOnUse">
<stop stop-color="#F2C964"/>
<stop offset="0.219259" stop-color="#A9E479"/>
<stop offset="0.418408" stop-color="#3DCAAC"/>
<stop offset="1" stop-color="#999999"/>
<stop offset="1" stop-color="#0130FC"/>
</linearGradient>
<linearGradient id="paint3_linear_29_1719" x1="1.66976" y1="201.859" x2="137.977" y2="195.756" gradientUnits="userSpaceOnUse">
<stop stop-color="#F2C964"/>
<stop offset="0.219259" stop-color="#A9E479"/>
<stop offset="0.418408" stop-color="#3DCAAC"/>
<stop offset="1" stop-color="#999999"/>
<stop offset="1" stop-color="#0130FC"/>
</linearGradient>
<linearGradient id="paint4_linear_29_1719" x1="229.019" y1="170.238" x2="805.122" y2="167.513" gradientUnits="userSpaceOnUse">
<stop stop-color="#F2C964"/>
<stop offset="0.219259" stop-color="#A9E479"/>
<stop offset="0.418408" stop-color="#3DCAAC"/>
<stop offset="0.828281" stop-color="#0130FC"/>
<stop offset="1" stop-color="#999999"/>
</linearGradient>
</defs>
</svg>
