<svg width="43" height="42" viewBox="0 0 43 42" fill="none" xmlns="http://www.w3.org/2000/svg">
<path d="M32.574 39.3752C30.9727 39.3752 28.7234 38.7961 25.3552 36.9143C21.2594 34.6174 18.0914 32.4969 14.0177 28.4339C10.09 24.5087 8.1787 21.9674 5.50366 17.0996C2.48163 11.6035 2.99679 8.7226 3.57265 7.49131C4.25843 6.01967 5.27069 5.13947 6.57909 4.26584C7.32226 3.77893 8.10871 3.36154 8.92847 3.01897C9.0105 2.98369 9.08679 2.95006 9.15487 2.91971C9.56093 2.73678 10.1762 2.46033 10.9555 2.75565C11.4755 2.95088 11.9398 3.35037 12.6666 4.06815C14.1571 5.53815 16.194 8.81201 16.9454 10.4198C17.4499 11.5035 17.7837 12.2188 17.7846 13.021C17.7846 13.9603 17.3121 14.6846 16.7387 15.4664C16.6312 15.6132 16.5246 15.7535 16.4212 15.8897C15.7969 16.71 15.66 16.9471 15.7502 17.3703C15.9331 18.221 17.2973 20.7533 19.5392 22.9903C21.7811 25.2273 24.2404 26.5053 25.0944 26.6874C25.5357 26.7818 25.7777 26.639 26.6242 25.9926C26.7457 25.8999 26.8703 25.804 27.0008 25.708C27.8752 25.0575 28.5659 24.5973 29.483 24.5973H29.488C30.2861 24.5973 30.9694 24.9435 32.1015 25.5144C33.578 26.2592 36.9503 28.2698 38.4294 29.762C39.1488 30.4871 39.5499 30.9498 39.746 31.469C40.0413 32.2508 39.7632 32.8636 39.5819 33.2737C39.5516 33.3418 39.5179 33.4165 39.4826 33.4993C39.1374 34.3176 38.7175 35.1024 38.2284 35.8438C37.3564 37.1481 36.4729 38.1579 34.998 38.8445C34.2406 39.2027 33.4118 39.3842 32.574 39.3752Z" fill="white"/>
</svg>
