<svg width="30" height="26" viewBox="0 0 30 26" fill="none" xmlns="http://www.w3.org/2000/svg">
<path d="M28.7869 11.1908L28.7769 11.1864L2.08438 0.115156C1.85986 0.0211865 1.61556 -0.0156673 1.37332 0.00789157C1.13107 0.0314505 0.898449 0.114687 0.69625 0.250156C0.482622 0.390137 0.307145 0.581032 0.185609 0.805666C0.0640733 1.0303 0.000290684 1.28163 3.41257e-07 1.53703V8.61766C0.000119049 8.96681 0.122037 9.30499 0.344741 9.5739C0.567445 9.84281 0.876982 10.0256 1.22 10.0908L15.7781 12.7827C15.8353 12.7935 15.887 12.824 15.9241 12.8688C15.9612 12.9137 15.9816 12.9701 15.9816 13.0283C15.9816 13.0865 15.9612 13.1429 15.9241 13.1877C15.887 13.2326 15.8353 13.2631 15.7781 13.2739L1.22063 15.9658C0.877702 16.0308 0.568183 16.2133 0.34538 16.482C0.122576 16.7507 0.000437513 17.0886 3.41257e-07 17.4377V24.5195C-0.000165644 24.7634 0.0602214 25.0035 0.175743 25.2183C0.291264 25.4331 0.458305 25.6159 0.661875 25.7502C0.90675 25.9129 1.19413 25.9998 1.48813 26.0002C1.69251 26 1.89481 25.959 2.08313 25.8795L28.775 14.8714L28.7869 14.8658C29.1462 14.7114 29.4523 14.455 29.6674 14.1284C29.8825 13.8018 29.9972 13.4194 29.9972 13.0283C29.9972 12.6372 29.8825 12.2547 29.6674 11.9281C29.4523 11.6015 29.1462 11.3452 28.7869 11.1908Z" fill="#2D2D2D"/>
</svg>
