<svg width="38" height="30" viewBox="0 0 38 30" fill="none" xmlns="http://www.w3.org/2000/svg">
<path d="M32.7812 0.5625H5.21875C4.00081 0.563803 2.83313 1.0482 1.97192 1.90942C1.1107 2.77063 0.626303 3.93831 0.625 5.15625V24.8438C0.626303 26.0617 1.1107 27.2294 1.97192 28.0906C2.83313 28.9518 4.00081 29.4362 5.21875 29.4375H32.7812C33.9992 29.4362 35.1669 28.9518 36.0281 28.0906C36.8893 27.2294 37.3737 26.0617 37.375 24.8438V5.15625C37.3737 3.93831 36.8893 2.77063 36.0281 1.90942C35.1669 1.0482 33.9992 0.563803 32.7812 0.5625ZM31.618 8.16106L19.8055 17.3486C19.5752 17.5276 19.2918 17.6248 19 17.6248C18.7082 17.6248 18.4248 17.5276 18.1945 17.3486L6.38195 8.16106C6.24317 8.05625 6.12659 7.9249 6.03901 7.77465C5.95142 7.6244 5.89457 7.45824 5.87176 7.28583C5.84895 7.11342 5.86062 6.93819 5.90612 6.77034C5.95161 6.60248 6.03001 6.44533 6.13676 6.30804C6.24351 6.17074 6.37648 6.05603 6.52795 5.97056C6.67942 5.8851 6.84636 5.83059 7.01908 5.81021C7.19179 5.78982 7.36684 5.80397 7.53404 5.85182C7.70124 5.89967 7.85727 5.98027 7.99305 6.08894L19 14.6497L30.007 6.08894C30.2822 5.8811 30.6282 5.78994 30.9701 5.83518C31.312 5.88042 31.6224 6.05843 31.8341 6.33071C32.0458 6.60299 32.1418 6.94766 32.1014 7.29018C32.0609 7.6327 31.8873 7.94554 31.618 8.16106Z" fill="white"/>
</svg>
