<svg width="655" height="375" viewBox="0 0 655 375" fill="none" xmlns="http://www.w3.org/2000/svg">
<path d="M266.323 323.949C266.31 315.027 259.236 307.798 250.52 307.812L167.501 307.925C158.785 307.939 151.724 315.181 151.737 324.103C151.75 333.025 158.824 340.254 167.54 340.241L250.559 340.133C259.275 340.12 266.329 332.871 266.323 323.949Z" fill="url(#paint0_linear_29_2503)" fill-opacity="0.1"/>
<path d="M206.315 187.576C206.302 178.654 199.228 171.425 190.512 171.439L119.424 171.532C110.708 171.546 103.647 178.788 103.66 187.71C103.673 196.632 110.747 203.861 119.463 203.847L190.551 203.754C199.267 203.747 206.328 196.498 206.315 187.576Z" fill="url(#paint1_linear_29_2503)" fill-opacity="0.1"/>
<path d="M56.7686 42.7136C56.7816 51.6357 63.8552 58.8644 72.5716 58.8511L250.558 58.6168C259.275 58.6034 266.335 51.3613 266.322 42.4392C266.309 33.5171 259.236 26.2883 250.519 26.3017L72.5325 26.536C63.8161 26.5494 56.7555 33.7915 56.7686 42.7136Z" fill="url(#paint2_linear_29_2503)" fill-opacity="0.1"/>
<path d="M75.0915 335.788C87.9348 318.479 68.8133 298.955 51.9346 312.147C39.0848 329.463 58.2127 348.987 75.0915 335.788Z" fill="url(#paint3_linear_29_2503)" fill-opacity="0.1"/>
<path d="M27.3623 199.415C40.2055 182.106 21.0841 162.582 4.20532 175.774C-8.63792 193.09 10.4835 212.614 27.3623 199.415Z" fill="url(#paint4_linear_29_2503)" fill-opacity="0.1"/>
<path d="M654.305 374.823C656.62 384.307 652.082 9.90603 654.305 0C651.789 0.207491 640.589 0.501995 640.589 0.501995L343.766 0C335.069 0.0133865 327.624 6.98777 327.468 15.8764C327.311 24.9458 334.456 32.3218 343.271 32.3084L358.507 32.295C367.784 32.2816 375.711 40.0525 375.522 49.5636C375.32 59.4161 367.458 67.3677 357.783 67.3677L293.808 67.4614C284.589 67.4614 276.681 74.8575 276.544 84.2883C276.421 93.8463 283.951 101.617 293.254 101.617L487.574 101.282L544.616 101.282C553.313 101.269 560.928 107.855 561.756 116.724C562.708 126.878 554.95 135.425 545.216 135.445L492.376 135.505C483.158 135.519 475.25 142.901 475.113 152.332C474.976 161.89 482.519 169.681 491.809 169.661L500.767 169.647C508.877 169.647 515.683 176.428 515.618 184.721C515.507 195.778 506.738 204.713 495.91 204.734L463.241 204.78L317.891 204.968C309.181 204.968 301.683 211.956 301.566 220.878C301.442 229.914 308.568 237.276 317.369 237.276L467.329 237.718L513.082 237.859C523.448 237.892 531.806 246.72 531.375 257.443C531.056 265.676 524.23 272.075 516.185 272.095L477.844 272.141L296.018 272.376C286.819 272.376 278.891 279.772 278.768 289.203C278.631 298.761 286.154 306.531 295.464 306.531L350.664 306.451C360.958 306.438 369.309 314.965 369.329 325.5C369.329 329.663 367.686 333.432 365.026 336.176C362.353 338.907 358.683 340.593 354.614 340.607L305.862 340.667C296.676 340.667 288.814 348.03 288.658 357.447C288.488 367.018 296.031 374.823 305.354 374.809L654.006 374.575C654.006 374.649 654.006 374.742 654.006 374.809L654.305 374.823Z" fill="url(#paint5_linear_29_2503)" fill-opacity="0.1"/>
<defs>
<linearGradient id="paint0_linear_29_2503" x1="157.795" y1="309.52" x2="640.887" y2="387.766" gradientUnits="userSpaceOnUse">
<stop stop-color="#F2C964"/>
<stop offset="0.219259" stop-color="#A9E479"/>
<stop offset="0.418408" stop-color="#3DCAAC"/>
<stop offset="1" stop-color="#999999"/>
<stop offset="1" stop-color="#0130FC"/>
</linearGradient>
<linearGradient id="paint1_linear_29_2503" x1="109.087" y1="173.146" x2="544.064" y2="236.302" gradientUnits="userSpaceOnUse">
<stop stop-color="#F2C964"/>
<stop offset="0.219259" stop-color="#A9E479"/>
<stop offset="0.418408" stop-color="#3DCAAC"/>
<stop offset="1" stop-color="#999999"/>
<stop offset="1" stop-color="#0130FC"/>
</linearGradient>
<linearGradient id="paint2_linear_29_2503" x1="67.8463" y1="28.0161" x2="901.867" y2="274.146" gradientUnits="userSpaceOnUse">
<stop stop-color="#F2C964"/>
<stop offset="0.219259" stop-color="#A9E479"/>
<stop offset="0.418408" stop-color="#3DCAAC"/>
<stop offset="1" stop-color="#999999"/>
<stop offset="1" stop-color="#0130FC"/>
</linearGradient>
<linearGradient id="paint3_linear_29_2503" x1="49.3955" y1="309.514" x2="185.714" y2="315.618" gradientUnits="userSpaceOnUse">
<stop stop-color="#F2C964"/>
<stop offset="0.219259" stop-color="#A9E479"/>
<stop offset="0.418408" stop-color="#3DCAAC"/>
<stop offset="1" stop-color="#999999"/>
<stop offset="1" stop-color="#0130FC"/>
</linearGradient>
<linearGradient id="paint4_linear_29_2503" x1="1.66878" y1="173.141" x2="137.976" y2="179.244" gradientUnits="userSpaceOnUse">
<stop stop-color="#F2C964"/>
<stop offset="0.219259" stop-color="#A9E479"/>
<stop offset="0.418408" stop-color="#3DCAAC"/>
<stop offset="1" stop-color="#999999"/>
<stop offset="1" stop-color="#0130FC"/>
</linearGradient>
<linearGradient id="paint5_linear_29_2503" x1="229.018" y1="204.762" x2="805.121" y2="207.487" gradientUnits="userSpaceOnUse">
<stop stop-color="#F2C964"/>
<stop offset="0.219259" stop-color="#A9E479"/>
<stop offset="0.418408" stop-color="#3DCAAC"/>
<stop offset="0.828281" stop-color="#0130FC"/>
<stop offset="1" stop-color="#999999"/>
</linearGradient>
</defs>
</svg>
