<svg width="28" height="38" viewBox="0 0 28 38" fill="none" xmlns="http://www.w3.org/2000/svg">
<path d="M14 0.625C6.75418 0.625 0.875 5.91684 0.875 12.4375C0.875 22.9375 14 37.375 14 37.375C14 37.375 27.125 22.9375 27.125 12.4375C27.125 5.91684 21.2458 0.625 14 0.625ZM14 19C12.9616 19 11.9466 18.6921 11.0833 18.1152C10.2199 17.5383 9.54699 16.7184 9.14963 15.7591C8.75227 14.7998 8.6483 13.7442 8.85088 12.7258C9.05345 11.7074 9.55346 10.7719 10.2877 10.0377C11.0219 9.30346 11.9574 8.80345 12.9758 8.60088C13.9942 8.3983 15.0498 8.50227 16.0091 8.89963C16.9684 9.29699 17.7883 9.9699 18.3652 10.8333C18.9421 11.6966 19.25 12.7116 19.25 13.75C19.2485 15.1419 18.6949 16.4764 17.7106 17.4606C16.7264 18.4449 15.3919 18.9985 14 19Z" fill="white"/>
</svg>
