<svg width="175" height="100" viewBox="0 0 175 100" fill="none" xmlns="http://www.w3.org/2000/svg">
<path d="M71.3568 13.6137C71.3534 15.9929 69.4671 17.9206 67.1427 17.917L45.0045 17.8866C42.6801 17.8831 40.7973 15.9518 40.8008 13.5726C40.8043 11.1934 42.6906 9.26572 45.0149 9.26929L67.1531 9.29785C69.4775 9.30142 71.3586 11.2344 71.3568 13.6137Z" fill="url(#paint0_linear_29_5239)" fill-opacity="0.1"/>
<path d="M55.3551 49.9796C55.3516 52.3589 53.4653 54.2865 51.1409 54.283L32.1842 54.258C29.8598 54.2544 27.977 52.3232 27.9805 49.9439C27.984 47.5647 29.8702 45.637 32.1946 45.6406L51.1513 45.6656C53.4757 45.6674 55.3585 47.6004 55.3551 49.9796Z" fill="url(#paint1_linear_29_5239)" fill-opacity="0.1"/>
<path d="M15.4766 88.6098C15.48 86.2306 17.3663 84.3029 19.6907 84.3065L67.1538 84.369C69.4782 84.3725 71.361 86.3038 71.3575 88.683C71.354 91.0622 69.4678 92.9899 67.1434 92.9863L19.6803 92.9239C17.3559 92.9203 15.4731 90.9891 15.4766 88.6098Z" fill="url(#paint2_linear_29_5239)" fill-opacity="0.1"/>
<path d="M20.3618 10.4567C23.7866 15.0723 18.6876 20.2788 14.1866 16.7608C10.76 12.1434 15.8608 6.93689 20.3618 10.4567Z" fill="url(#paint3_linear_29_5239)" fill-opacity="0.1"/>
<path d="M7.6345 46.8226C11.0594 51.4383 5.96031 56.6448 1.45931 53.1268C-1.96555 48.5093 3.1335 43.3029 7.6345 46.8226Z" fill="url(#paint4_linear_29_5239)" fill-opacity="0.1"/>
<path d="M174.82 0.0472488C175.437 -2.48192 174.227 97.3584 174.82 100C174.149 99.9447 171.162 99.8661 171.162 99.8661L92.0092 100C89.69 99.9964 87.7046 98.1366 87.6629 95.7663C87.6212 93.3478 89.5266 91.3809 91.8771 91.3844L95.94 91.388C98.4139 91.3916 100.528 89.3193 100.477 86.783C100.424 84.1557 98.3269 82.0353 95.747 82.0353L78.687 82.0103C76.2287 82.0103 74.1199 80.038 74.0834 77.5231C74.0504 74.9743 76.0584 72.9021 78.5392 72.9021L130.358 72.9913L145.569 72.9913C147.888 72.9949 149.919 71.2386 150.14 68.8736C150.394 66.166 148.325 63.8867 145.729 63.8814L131.639 63.8653C129.18 63.8617 127.071 61.893 127.035 59.3781C126.998 56.8293 129.01 54.7518 131.487 54.7571L133.876 54.7607C136.039 54.7607 137.854 52.9526 137.836 50.7411C137.807 47.7925 135.468 45.4097 132.581 45.4044L123.869 45.3919L85.109 45.3419C82.7864 45.3419 80.7871 43.4785 80.7558 41.0993C80.7228 38.6897 82.623 36.7263 84.97 36.7263L124.959 36.6085L137.16 36.5711C139.924 36.5621 142.153 34.2079 142.038 31.3485C141.953 29.1531 140.133 27.4468 137.988 27.4414L127.763 27.4289L79.2763 27.3665C76.8233 27.3665 74.7093 25.3942 74.6762 22.8793C74.6397 20.3305 76.646 18.2583 79.1286 18.2583L93.8485 18.2797C96.5936 18.2833 98.8207 16.0093 98.8259 13.2C98.8259 12.0898 98.3878 11.0849 97.6785 10.3531C96.9657 9.62486 95.9869 9.17508 94.9021 9.17151L81.9015 9.15544C79.4519 9.15544 77.3553 7.19209 77.3136 4.68078C77.2684 2.12842 79.2798 0.0472565 81.7659 0.050827L174.74 0.113289C174.74 0.0936584 174.74 0.0686722 174.74 0.050827L174.82 0.0472488Z" fill="url(#paint5_linear_29_5239)" fill-opacity="0.1"/>
<defs>
<linearGradient id="paint0_linear_29_5239" x1="42.4161" y1="17.4615" x2="171.241" y2="-3.40404" gradientUnits="userSpaceOnUse">
<stop stop-color="#F2C964"/>
<stop offset="0.219259" stop-color="#A9E479"/>
<stop offset="0.418408" stop-color="#3DCAAC"/>
<stop offset="1" stop-color="#999999"/>
<stop offset="1" stop-color="#0130FC"/>
</linearGradient>
<linearGradient id="paint1_linear_29_5239" x1="29.4276" y1="53.8277" x2="145.421" y2="36.9861" gradientUnits="userSpaceOnUse">
<stop stop-color="#F2C964"/>
<stop offset="0.219259" stop-color="#A9E479"/>
<stop offset="0.418408" stop-color="#3DCAAC"/>
<stop offset="1" stop-color="#999999"/>
<stop offset="1" stop-color="#0130FC"/>
</linearGradient>
<linearGradient id="paint2_linear_29_5239" x1="18.4306" y1="92.5291" x2="240.836" y2="26.8946" gradientUnits="userSpaceOnUse">
<stop stop-color="#F2C964"/>
<stop offset="0.219259" stop-color="#A9E479"/>
<stop offset="0.418408" stop-color="#3DCAAC"/>
<stop offset="1" stop-color="#999999"/>
<stop offset="1" stop-color="#0130FC"/>
</linearGradient>
<linearGradient id="paint3_linear_29_5239" x1="13.5095" y1="17.4631" x2="49.8612" y2="15.8352" gradientUnits="userSpaceOnUse">
<stop stop-color="#F2C964"/>
<stop offset="0.219259" stop-color="#A9E479"/>
<stop offset="0.418408" stop-color="#3DCAAC"/>
<stop offset="1" stop-color="#999999"/>
<stop offset="1" stop-color="#0130FC"/>
</linearGradient>
<linearGradient id="paint4_linear_29_5239" x1="0.782898" y1="53.8291" x2="37.1315" y2="52.2014" gradientUnits="userSpaceOnUse">
<stop stop-color="#F2C964"/>
<stop offset="0.219259" stop-color="#A9E479"/>
<stop offset="0.418408" stop-color="#3DCAAC"/>
<stop offset="1" stop-color="#999999"/>
<stop offset="1" stop-color="#0130FC"/>
</linearGradient>
<linearGradient id="paint5_linear_29_5239" x1="61.4097" y1="45.3968" x2="215.037" y2="44.6702" gradientUnits="userSpaceOnUse">
<stop stop-color="#F2C964"/>
<stop offset="0.219259" stop-color="#A9E479"/>
<stop offset="0.418408" stop-color="#3DCAAC"/>
<stop offset="0.828281" stop-color="#0130FC"/>
<stop offset="1" stop-color="#999999"/>
</linearGradient>
</defs>
</svg>
