<svg width="117" height="100" viewBox="0 0 117 100" fill="none" xmlns="http://www.w3.org/2000/svg">
<path d="M71.019 13.6135C71.0155 15.9928 69.1292 17.9204 66.8048 17.9169L44.6666 17.8865C42.3422 17.883 40.4594 15.9517 40.4629 13.5725C40.4664 11.1933 42.3527 9.2656 44.677 9.26917L66.8152 9.29772C69.1396 9.30129 71.0207 11.2343 71.019 13.6135Z" fill="url(#paint0_linear_29_5232)" fill-opacity="0.1"/>
<path d="M55.0172 49.9797C55.0137 52.3589 53.1274 54.2866 50.803 54.283L31.8463 54.258C29.5219 54.2545 27.6391 52.3232 27.6426 49.944C27.6461 47.5648 29.5323 45.6371 31.8567 45.6407L50.8135 45.6657C53.1378 45.6674 55.0206 47.6005 55.0172 49.9797Z" fill="url(#paint1_linear_29_5232)" fill-opacity="0.1"/>
<path d="M15.1387 88.6097C15.1422 86.2305 17.0284 84.3028 19.3528 84.3064L66.8159 84.3688C69.1403 84.3724 71.0231 86.3036 71.0196 88.6829C71.0162 91.0621 69.1299 92.9898 66.8055 92.9862L19.3424 92.9237C17.018 92.9202 15.1352 90.9889 15.1387 88.6097Z" fill="url(#paint2_linear_29_5232)" fill-opacity="0.1"/>
<path d="M20.0239 10.4565C23.4487 15.0722 18.3497 20.2787 13.8487 16.7607C10.4221 12.1432 15.5229 6.93677 20.0239 10.4565Z" fill="url(#paint3_linear_29_5232)" fill-opacity="0.1"/>
<path d="M7.29661 46.8227C10.7215 51.4384 5.62242 56.6448 1.12142 53.1268C-2.30345 48.5094 2.79561 43.3029 7.29661 46.8227Z" fill="url(#paint4_linear_29_5232)" fill-opacity="0.1"/>
<path d="M174.482 0.0472488C175.099 -2.48192 173.889 97.3584 174.482 100C173.811 99.9447 170.824 99.8661 170.824 99.8661L91.6713 100C89.3521 99.9964 87.3667 98.1366 87.325 95.7663C87.2833 93.3478 89.1887 91.3809 91.5392 91.3844L95.6021 91.388C98.076 91.3916 100.19 89.3193 100.14 86.783C100.086 84.1557 97.989 82.0353 95.4091 82.0353L78.3491 82.0103C75.8908 82.0103 73.782 80.038 73.7455 77.5231C73.7125 74.9743 75.7205 72.9021 78.2013 72.9021L130.02 72.9913L145.231 72.9913C147.55 72.9949 149.581 71.2386 149.802 68.8736C150.056 66.166 147.987 63.8867 145.391 63.8814L131.301 63.8653C128.842 63.8617 126.734 61.893 126.697 59.3781C126.661 56.8293 128.672 54.7518 131.149 54.7571L133.538 54.7607C135.701 54.7607 137.516 52.9526 137.498 50.7411C137.469 47.7925 135.131 45.4097 132.243 45.4044L123.531 45.3919L84.7712 45.3419C82.4485 45.3419 80.4492 43.4785 80.4179 41.0993C80.3849 38.6897 82.2851 36.7263 84.6321 36.7263L124.621 36.6085L136.822 36.5711C139.586 36.5621 141.815 34.2079 141.7 31.3485C141.615 29.1531 139.795 27.4468 137.65 27.4414L127.426 27.4289L78.9384 27.3665C76.4854 27.3665 74.3714 25.3942 74.3384 22.8793C74.3018 20.3305 76.3081 18.2583 78.7907 18.2583L93.5106 18.2797C96.2557 18.2833 98.4828 16.0093 98.488 13.2C98.488 12.0898 98.0499 11.0849 97.3406 10.3531C96.6278 9.62486 95.649 9.17508 94.5642 9.17151L81.5636 9.15544C79.114 9.15544 77.0174 7.19209 76.9757 4.68078C76.9305 2.12842 78.9419 0.0472565 81.428 0.050827L174.402 0.113289C174.402 0.0936584 174.402 0.0686722 174.402 0.050827L174.482 0.0472488Z" fill="url(#paint5_linear_29_5232)" fill-opacity="0.1"/>
<defs>
<linearGradient id="paint0_linear_29_5232" x1="42.0782" y1="17.4614" x2="170.903" y2="-3.40416" gradientUnits="userSpaceOnUse">
<stop stop-color="#F2C964"/>
<stop offset="0.219259" stop-color="#A9E479"/>
<stop offset="0.418408" stop-color="#3DCAAC"/>
<stop offset="1" stop-color="#999999"/>
<stop offset="1" stop-color="#0130FC"/>
</linearGradient>
<linearGradient id="paint1_linear_29_5232" x1="29.0897" y1="53.8278" x2="145.084" y2="36.9861" gradientUnits="userSpaceOnUse">
<stop stop-color="#F2C964"/>
<stop offset="0.219259" stop-color="#A9E479"/>
<stop offset="0.418408" stop-color="#3DCAAC"/>
<stop offset="1" stop-color="#999999"/>
<stop offset="1" stop-color="#0130FC"/>
</linearGradient>
<linearGradient id="paint2_linear_29_5232" x1="18.0927" y1="92.529" x2="240.498" y2="26.8945" gradientUnits="userSpaceOnUse">
<stop stop-color="#F2C964"/>
<stop offset="0.219259" stop-color="#A9E479"/>
<stop offset="0.418408" stop-color="#3DCAAC"/>
<stop offset="1" stop-color="#999999"/>
<stop offset="1" stop-color="#0130FC"/>
</linearGradient>
<linearGradient id="paint3_linear_29_5232" x1="13.1716" y1="17.463" x2="49.5233" y2="15.8351" gradientUnits="userSpaceOnUse">
<stop stop-color="#F2C964"/>
<stop offset="0.219259" stop-color="#A9E479"/>
<stop offset="0.418408" stop-color="#3DCAAC"/>
<stop offset="1" stop-color="#999999"/>
<stop offset="1" stop-color="#0130FC"/>
</linearGradient>
<linearGradient id="paint4_linear_29_5232" x1="0.445008" y1="53.8291" x2="36.7936" y2="52.2015" gradientUnits="userSpaceOnUse">
<stop stop-color="#F2C964"/>
<stop offset="0.219259" stop-color="#A9E479"/>
<stop offset="0.418408" stop-color="#3DCAAC"/>
<stop offset="1" stop-color="#999999"/>
<stop offset="1" stop-color="#0130FC"/>
</linearGradient>
<linearGradient id="paint5_linear_29_5232" x1="61.0718" y1="45.3968" x2="214.699" y2="44.6702" gradientUnits="userSpaceOnUse">
<stop stop-color="#F2C964"/>
<stop offset="0.219259" stop-color="#A9E479"/>
<stop offset="0.418408" stop-color="#3DCAAC"/>
<stop offset="0.828281" stop-color="#0130FC"/>
<stop offset="1" stop-color="#999999"/>
</linearGradient>
</defs>
</svg>
