<svg width="125" height="100" viewBox="0 0 125 100" fill="none" xmlns="http://www.w3.org/2000/svg">
<path d="M53.6432 13.6135C53.6466 15.9928 55.5329 17.9204 57.8573 17.9169L79.9955 17.8865C82.3199 17.883 84.2027 15.9517 84.1992 13.5725C84.1957 11.1933 82.3094 9.2656 79.9851 9.26917L57.8469 9.29772C55.5225 9.30129 53.6414 11.2343 53.6432 13.6135Z" fill="url(#paint0_linear_29_5225)" fill-opacity="0.1"/>
<path d="M69.6449 49.9797C69.6484 52.3589 71.5347 54.2866 73.8591 54.283L92.8158 54.258C95.1402 54.2545 97.023 52.3232 97.0195 49.944C97.016 47.5648 95.1298 45.6371 92.8054 45.6407L73.8487 45.6657C71.5243 45.6674 69.6415 47.6005 69.6449 49.9797Z" fill="url(#paint1_linear_29_5225)" fill-opacity="0.1"/>
<path d="M109.523 88.6097C109.52 86.2305 107.634 84.3028 105.309 84.3064L57.8462 84.3688C55.5218 84.3724 53.639 86.3036 53.6425 88.6829C53.646 91.0621 55.5322 92.9898 57.8566 92.9862L105.32 92.9237C107.644 92.9202 109.527 90.9889 109.523 88.6097Z" fill="url(#paint2_linear_29_5225)" fill-opacity="0.1"/>
<path d="M104.638 10.4565C101.213 15.0722 106.312 20.2787 110.813 16.7607C114.24 12.1432 109.139 6.93677 104.638 10.4565Z" fill="url(#paint3_linear_29_5225)" fill-opacity="0.1"/>
<path d="M117.366 46.8227C113.941 51.4384 119.04 56.6448 123.541 53.1268C126.966 48.5094 121.867 43.3029 117.366 46.8227Z" fill="url(#paint4_linear_29_5225)" fill-opacity="0.1"/>
<path d="M-49.8187 0.0472488C-50.4358 -2.48192 -49.2258 97.3584 -49.8187 100C-49.1476 99.9447 -46.1609 99.8661 -46.1609 99.8661L32.9918 100C35.311 99.9964 37.2963 98.1366 37.3381 95.7663C37.3798 93.3478 35.4744 91.3809 33.1239 91.3844L29.061 91.388C26.5871 91.3916 24.4731 89.3193 24.5235 86.783C24.5774 84.1557 26.674 82.0353 29.254 82.0353L46.314 82.0103C48.7722 82.0103 50.8811 80.038 50.9176 77.5231C50.9506 74.9743 48.9426 72.9021 46.4618 72.9021L-5.35705 72.9913L-20.5682 72.9913C-22.8874 72.9949 -24.918 71.2386 -25.1388 68.8736C-25.3926 66.166 -23.3238 63.8867 -20.7282 63.8814L-6.63755 63.8653C-4.1793 63.8617 -2.07049 61.893 -2.03398 59.3781C-1.99747 56.8293 -4.00893 54.7518 -6.48631 54.7571L-8.87501 54.7607C-11.0377 54.7607 -12.8527 52.9526 -12.8354 50.7411C-12.8058 47.7925 -10.4675 45.4097 -7.57983 45.4044L1.13185 45.3919L39.8919 45.3419C42.2146 45.3419 44.2139 43.4785 44.2452 41.0993C44.2782 38.6897 42.378 36.7263 40.031 36.7263L0.0418015 36.6085L-12.1591 36.5711C-14.9233 36.5621 -17.1521 34.2079 -17.0373 31.3485C-16.9521 29.1531 -15.1319 27.4468 -12.9866 27.4414L-2.76242 27.4289L45.7246 27.3665C48.1777 27.3665 50.2917 25.3942 50.3247 22.8793C50.3612 20.3305 48.355 18.2583 45.8724 18.2583L31.1524 18.2797C28.4073 18.2833 26.1803 16.0093 26.1751 13.2C26.1751 12.0898 26.6132 11.0849 27.3225 10.3531C28.0353 9.62486 29.0141 9.17508 30.0989 9.17151L43.0995 9.15544C45.549 9.15544 47.6457 7.19209 47.6874 4.68078C47.7326 2.12842 45.7212 0.0472565 43.2351 0.050827L-49.7387 0.113289C-49.7387 0.0936584 -49.7387 0.0686722 -49.7387 0.050827L-49.8187 0.0472488Z" fill="url(#paint5_linear_29_5225)" fill-opacity="0.1"/>
<defs>
<linearGradient id="paint0_linear_29_5225" x1="82.5839" y1="17.4614" x2="-46.2407" y2="-3.40416" gradientUnits="userSpaceOnUse">
<stop stop-color="#F2C964"/>
<stop offset="0.219259" stop-color="#A9E479"/>
<stop offset="0.418408" stop-color="#3DCAAC"/>
<stop offset="1" stop-color="#999999"/>
<stop offset="1" stop-color="#0130FC"/>
</linearGradient>
<linearGradient id="paint1_linear_29_5225" x1="95.5724" y1="53.8278" x2="-20.4214" y2="36.9861" gradientUnits="userSpaceOnUse">
<stop stop-color="#F2C964"/>
<stop offset="0.219259" stop-color="#A9E479"/>
<stop offset="0.418408" stop-color="#3DCAAC"/>
<stop offset="1" stop-color="#999999"/>
<stop offset="1" stop-color="#0130FC"/>
</linearGradient>
<linearGradient id="paint2_linear_29_5225" x1="106.569" y1="92.529" x2="-115.836" y2="26.8945" gradientUnits="userSpaceOnUse">
<stop stop-color="#F2C964"/>
<stop offset="0.219259" stop-color="#A9E479"/>
<stop offset="0.418408" stop-color="#3DCAAC"/>
<stop offset="1" stop-color="#999999"/>
<stop offset="1" stop-color="#0130FC"/>
</linearGradient>
<linearGradient id="paint3_linear_29_5225" x1="111.491" y1="17.463" x2="75.1388" y2="15.8351" gradientUnits="userSpaceOnUse">
<stop stop-color="#F2C964"/>
<stop offset="0.219259" stop-color="#A9E479"/>
<stop offset="0.418408" stop-color="#3DCAAC"/>
<stop offset="1" stop-color="#999999"/>
<stop offset="1" stop-color="#0130FC"/>
</linearGradient>
<linearGradient id="paint4_linear_29_5225" x1="124.217" y1="53.8291" x2="87.8685" y2="52.2015" gradientUnits="userSpaceOnUse">
<stop stop-color="#F2C964"/>
<stop offset="0.219259" stop-color="#A9E479"/>
<stop offset="0.418408" stop-color="#3DCAAC"/>
<stop offset="1" stop-color="#999999"/>
<stop offset="1" stop-color="#0130FC"/>
</linearGradient>
<linearGradient id="paint5_linear_29_5225" x1="63.5913" y1="45.3968" x2="-90.0361" y2="44.6702" gradientUnits="userSpaceOnUse">
<stop stop-color="#F2C964"/>
<stop offset="0.219259" stop-color="#A9E479"/>
<stop offset="0.418408" stop-color="#3DCAAC"/>
<stop offset="0.828281" stop-color="#0130FC"/>
<stop offset="1" stop-color="#999999"/>
</linearGradient>
</defs>
</svg>
