<?xml version="1.0" encoding="UTF-8" standalone="no"?>
<svg
   xmlns:dc="http://purl.org/dc/elements/1.1/"
   xmlns:cc="http://creativecommons.org/ns#"
   xmlns:rdf="http://www.w3.org/1999/02/22-rdf-syntax-ns#"
   xmlns:svg="http://www.w3.org/2000/svg"
   xmlns="http://www.w3.org/2000/svg"
   viewBox="0 0 1889.76 1889.76"
   height="1889.76"
   width="1889.76"
   xml:space="preserve"
   id="svg2"
   version="1.1"><metadata
     id="metadata8"><rdf:RDF><cc:Work
         rdf:about=""><dc:format>image/svg+xml</dc:format><dc:type
           rdf:resource="http://purl.org/dc/dcmitype/StillImage" /></cc:Work></rdf:RDF></metadata><defs
     id="defs6"><clipPath
       id="clipPath18"
       clipPathUnits="userSpaceOnUse"><path
         id="path16"
         d="M 0,1417.323 H 1417.323 V 0 H 0 Z" /></clipPath><linearGradient
       id="linearGradient82"
       spreadMethod="pad"
       gradientTransform="matrix(1033.5703,0,0,-1033.5703,191.74707,784.5921)"
       gradientUnits="userSpaceOnUse"
       y2="0"
       x2="1"
       y1="0"
       x1="0"><stop
         id="stop72"
         offset="0"
         style="stop-opacity:1;stop-color:#ffc45f" /><stop
         id="stop74"
         offset="0.35967306"
         style="stop-opacity:1;stop-color:#34c7af" /><stop
         id="stop76"
         offset="0.5219"
         style="stop-opacity:1;stop-color:#34c7af" /><stop
         id="stop78"
         offset="0.6390772"
         style="stop-opacity:1;stop-color:#34c7af" /><stop
         id="stop80"
         offset="1"
         style="stop-opacity:1;stop-color:#008be7" /></linearGradient><linearGradient
       id="linearGradient108"
       spreadMethod="pad"
       gradientTransform="matrix(1033.5703,0,0,-1033.5703,191.74707,784.5921)"
       gradientUnits="userSpaceOnUse"
       y2="0"
       x2="1"
       y1="0"
       x1="0"><stop
         id="stop98"
         offset="0"
         style="stop-opacity:1;stop-color:#ffc45f" /><stop
         id="stop100"
         offset="0.35967306"
         style="stop-opacity:1;stop-color:#34c7af" /><stop
         id="stop102"
         offset="0.5219"
         style="stop-opacity:1;stop-color:#34c7af" /><stop
         id="stop104"
         offset="0.6390772"
         style="stop-opacity:1;stop-color:#34c7af" /><stop
         id="stop106"
         offset="1"
         style="stop-opacity:1;stop-color:#008be7" /></linearGradient><linearGradient
       id="linearGradient134"
       spreadMethod="pad"
       gradientTransform="matrix(1033.5703,0,0,-1033.5703,191.74707,784.5921)"
       gradientUnits="userSpaceOnUse"
       y2="0"
       x2="1"
       y1="0"
       x1="0"><stop
         id="stop124"
         offset="0"
         style="stop-opacity:1;stop-color:#ffc45f" /><stop
         id="stop126"
         offset="0.35967306"
         style="stop-opacity:1;stop-color:#34c7af" /><stop
         id="stop128"
         offset="0.5219"
         style="stop-opacity:1;stop-color:#34c7af" /><stop
         id="stop130"
         offset="0.6390772"
         style="stop-opacity:1;stop-color:#34c7af" /><stop
         id="stop132"
         offset="1"
         style="stop-opacity:1;stop-color:#008be7" /></linearGradient><linearGradient
       id="linearGradient160"
       spreadMethod="pad"
       gradientTransform="matrix(1033.5703,0,0,-1033.5703,191.74707,784.5921)"
       gradientUnits="userSpaceOnUse"
       y2="0"
       x2="1"
       y1="0"
       x1="0"><stop
         id="stop150"
         offset="0"
         style="stop-opacity:1;stop-color:#ffc45f" /><stop
         id="stop152"
         offset="0.35967306"
         style="stop-opacity:1;stop-color:#34c7af" /><stop
         id="stop154"
         offset="0.5219"
         style="stop-opacity:1;stop-color:#34c7af" /><stop
         id="stop156"
         offset="0.6390772"
         style="stop-opacity:1;stop-color:#34c7af" /><stop
         id="stop158"
         offset="1"
         style="stop-opacity:1;stop-color:#008be7" /></linearGradient><linearGradient
       id="linearGradient186"
       spreadMethod="pad"
       gradientTransform="matrix(1033.5703,0,0,-1033.5703,191.74707,784.5921)"
       gradientUnits="userSpaceOnUse"
       y2="0"
       x2="1"
       y1="0"
       x1="0"><stop
         id="stop176"
         offset="0"
         style="stop-opacity:1;stop-color:#ffc45f" /><stop
         id="stop178"
         offset="0.35967306"
         style="stop-opacity:1;stop-color:#34c7af" /><stop
         id="stop180"
         offset="0.5219"
         style="stop-opacity:1;stop-color:#34c7af" /><stop
         id="stop182"
         offset="0.6390772"
         style="stop-opacity:1;stop-color:#34c7af" /><stop
         id="stop184"
         offset="1"
         style="stop-opacity:1;stop-color:#008be7" /></linearGradient><linearGradient
       id="linearGradient212"
       spreadMethod="pad"
       gradientTransform="matrix(1033.5703,0,0,-1033.5703,191.74707,784.5921)"
       gradientUnits="userSpaceOnUse"
       y2="0"
       x2="1"
       y1="0"
       x1="0"><stop
         id="stop202"
         offset="0"
         style="stop-opacity:1;stop-color:#ffc45f" /><stop
         id="stop204"
         offset="0.35967306"
         style="stop-opacity:1;stop-color:#34c7af" /><stop
         id="stop206"
         offset="0.5219"
         style="stop-opacity:1;stop-color:#34c7af" /><stop
         id="stop208"
         offset="0.6390772"
         style="stop-opacity:1;stop-color:#34c7af" /><stop
         id="stop210"
         offset="1"
         style="stop-opacity:1;stop-color:#008be7" /></linearGradient><linearGradient
       id="linearGradient238"
       spreadMethod="pad"
       gradientTransform="matrix(1033.5703,0,0,-1033.5703,191.74707,784.5921)"
       gradientUnits="userSpaceOnUse"
       y2="0"
       x2="1"
       y1="0"
       x1="0"><stop
         id="stop228"
         offset="0"
         style="stop-opacity:1;stop-color:#ffc45f" /><stop
         id="stop230"
         offset="0.35967306"
         style="stop-opacity:1;stop-color:#34c7af" /><stop
         id="stop232"
         offset="0.5219"
         style="stop-opacity:1;stop-color:#34c7af" /><stop
         id="stop234"
         offset="0.6390772"
         style="stop-opacity:1;stop-color:#34c7af" /><stop
         id="stop236"
         offset="1"
         style="stop-opacity:1;stop-color:#008be7" /></linearGradient><linearGradient
       id="linearGradient264"
       spreadMethod="pad"
       gradientTransform="matrix(1033.5703,0,0,-1033.5703,191.74707,784.5921)"
       gradientUnits="userSpaceOnUse"
       y2="0"
       x2="1"
       y1="0"
       x1="0"><stop
         id="stop254"
         offset="0"
         style="stop-opacity:1;stop-color:#ffc45f" /><stop
         id="stop256"
         offset="0.35967306"
         style="stop-opacity:1;stop-color:#34c7af" /><stop
         id="stop258"
         offset="0.5219"
         style="stop-opacity:1;stop-color:#34c7af" /><stop
         id="stop260"
         offset="0.6390772"
         style="stop-opacity:1;stop-color:#34c7af" /><stop
         id="stop262"
         offset="1"
         style="stop-opacity:1;stop-color:#008be7" /></linearGradient><linearGradient
       id="linearGradient290"
       spreadMethod="pad"
       gradientTransform="matrix(1033.5703,0,0,-1033.5703,191.74707,784.5921)"
       gradientUnits="userSpaceOnUse"
       y2="0"
       x2="1"
       y1="0"
       x1="0"><stop
         id="stop280"
         offset="0"
         style="stop-opacity:1;stop-color:#ffc45f" /><stop
         id="stop282"
         offset="0.35967306"
         style="stop-opacity:1;stop-color:#34c7af" /><stop
         id="stop284"
         offset="0.5219"
         style="stop-opacity:1;stop-color:#34c7af" /><stop
         id="stop286"
         offset="0.6390772"
         style="stop-opacity:1;stop-color:#34c7af" /><stop
         id="stop288"
         offset="1"
         style="stop-opacity:1;stop-color:#008be7" /></linearGradient><linearGradient
       id="linearGradient316"
       spreadMethod="pad"
       gradientTransform="matrix(1033.5703,0,0,-1033.5703,191.74707,784.5921)"
       gradientUnits="userSpaceOnUse"
       y2="0"
       x2="1"
       y1="0"
       x1="0"><stop
         id="stop306"
         offset="0"
         style="stop-opacity:1;stop-color:#ffc45f" /><stop
         id="stop308"
         offset="0.35967306"
         style="stop-opacity:1;stop-color:#34c7af" /><stop
         id="stop310"
         offset="0.5219"
         style="stop-opacity:1;stop-color:#34c7af" /><stop
         id="stop312"
         offset="0.6390772"
         style="stop-opacity:1;stop-color:#34c7af" /><stop
         id="stop314"
         offset="1"
         style="stop-opacity:1;stop-color:#008be7" /></linearGradient></defs><g
     transform="matrix(1.3333333,0,0,-1.3333333,0,1889.76)"
     id="g10"><g
       id="g12"><g
         clip-path="url(#clipPath18)"
         id="g14"><g
           transform="translate(284.3291,835.648)"
           id="g20"><path
             id="path22"
             style="fill:#000000;fill-opacity:1;fill-rule:nonzero;stroke:none"
             d="m 0,0 -12.521,-20.033 h -37.074 -3.826 c -2.643,0.185 -4.846,0.058 -6.608,-0.383 -1.763,-0.44 -3.189,-1.089 -4.278,-1.947 -1.09,-0.859 -1.843,-1.878 -2.26,-3.06 -0.418,-1.183 -0.696,-2.47 -0.835,-3.861 0,-1.53 0.532,-3.246 1.6,-5.147 1.066,-1.716 2.713,-2.76 4.938,-3.131 2.226,-0.371 5.24,-0.556 9.043,-0.556 h 16.346 c 7.697,0 13.773,-1.067 18.225,-3.2 2.318,-1.02 4.451,-2.458 6.399,-4.312 1.948,-1.855 3.628,-4.012 5.043,-6.469 1.414,-2.459 2.527,-5.206 3.339,-8.243 0.811,-3.038 1.217,-6.225 1.217,-9.564 0,-7.512 -1.623,-14.028 -4.869,-19.546 -3.015,-5.38 -7.049,-8.881 -12.103,-10.504 -5.008,-1.438 -11.571,-2.156 -19.685,-2.156 h -54.117 v 20.103 h 46.048 2.574 c 2.921,-0.186 5.448,-0.047 7.582,0.417 2.132,0.463 3.895,1.171 5.286,2.121 1.391,0.95 2.388,2.04 2.991,3.27 0.602,1.228 0.858,2.561 0.765,3.999 -0.094,2.55 -1.137,4.753 -3.13,6.608 -1.994,1.855 -4.893,2.597 -8.695,2.226 h -3.826 -16.554 c -6.911,0 -12.638,1.044 -17.182,3.13 -2.411,1.159 -4.614,2.713 -6.607,4.661 -1.995,1.948 -3.722,4.196 -5.183,6.747 -1.46,2.55 -2.597,5.367 -3.408,8.452 -0.812,3.083 -1.217,6.34 -1.217,9.773 0,6.538 1.414,12.473 4.243,17.806 1.437,2.55 3.245,4.661 5.425,6.33 2.18,1.67 4.649,2.979 7.408,3.93 2.759,0.95 5.727,1.611 8.904,1.983 3.176,0.37 6.479,0.556 9.912,0.556 l 3.965,0 z" /></g><g
           transform="translate(376.3555,835.648)"
           id="g24"><path
             id="path26"
             style="fill:#000000;fill-opacity:1;fill-rule:nonzero;stroke:none"
             d="m 0,0 -12.104,-22.189 h -16.415 -4.522 c -6.075,0 -11.059,-0.638 -14.955,-1.913 -3.895,-1.276 -6.84,-3.629 -8.834,-7.06 -1.994,-3.432 -3.303,-6.713 -3.93,-9.842 -0.626,-3.131 -0.939,-6.365 -0.939,-9.704 0,-1.902 0.07,-3.629 0.209,-5.182 0.139,-1.554 0.428,-3.142 0.869,-4.765 0.441,-1.624 0.997,-3.316 1.67,-5.078 0.672,-1.763 1.565,-3.686 2.678,-5.773 2.272,-4.081 5.031,-6.678 8.277,-7.79 3.432,-1.068 8.974,-1.6 16.625,-1.6 h 27.823 v -21.216 h -38.744 c -4.684,0 -8.823,0.266 -12.416,0.8 -3.594,0.533 -6.771,1.367 -9.529,2.504 -2.76,1.136 -5.182,2.678 -7.269,4.626 -2.087,1.948 -3.989,4.335 -5.704,7.164 -3.339,5.704 -5.669,11.523 -6.991,17.459 -1.321,5.936 -1.982,12.034 -1.982,18.294 0,6.353 0.591,12.312 1.773,17.877 1.183,5.565 3.489,11.291 6.922,17.181 3.523,5.982 8.509,10.178 14.955,12.59 C -56.088,-1.206 -48.529,0 -39.857,0 Z" /></g><g
           transform="translate(418.2295,774.1583)"
           id="g28"><path
             id="path30"
             style="fill:#000000;fill-opacity:1;fill-rule:nonzero;stroke:none"
             d="M 0,0 H 27.336 L 13.703,38.466 Z M 30.188,61.49 67.263,-40.622 H 41.596 L 34.779,-22.12 H 11.269 L -0.695,-1.878 -15.373,-40.622 H -41.735 L -3.965,61.49 Z" /></g><g
           transform="translate(551.9209,774.1583)"
           id="g32"><path
             id="path34"
             style="fill:#000000;fill-opacity:1;fill-rule:nonzero;stroke:none"
             d="M 0,0 H 27.336 L 13.703,38.466 Z M 30.188,61.49 67.263,-40.622 H 41.596 L 34.779,-22.12 H 11.269 L -0.695,-1.878 -15.373,-40.622 H -41.735 L -3.965,61.49 Z" /></g><g
           transform="translate(707.7314,835.648)"
           id="g36"><path
             id="path38"
             style="fill:#000000;fill-opacity:1;fill-rule:nonzero;stroke:none"
             d="m 0,0 -12.103,-22.189 h -16.416 -4.521 c -6.075,0 -11.06,-0.638 -14.955,-1.913 -3.896,-1.276 -6.841,-3.629 -8.834,-7.06 -1.994,-3.432 -3.304,-6.713 -3.93,-9.842 -0.626,-3.131 -0.939,-6.365 -0.939,-9.704 0,-1.902 0.069,-3.629 0.209,-5.182 0.138,-1.554 0.427,-3.142 0.869,-4.765 0.44,-1.624 0.997,-3.316 1.67,-5.078 0.671,-1.763 1.564,-3.686 2.678,-5.773 2.271,-4.081 5.031,-6.678 8.277,-7.79 3.432,-1.068 8.973,-1.6 16.625,-1.6 h 27.823 v -21.216 h -38.744 c -4.685,0 -8.823,0.266 -12.416,0.8 -3.595,0.533 -6.772,1.367 -9.53,2.504 -2.759,1.136 -5.182,2.678 -7.269,4.626 -2.087,1.948 -3.988,4.335 -5.704,7.164 -3.339,5.704 -5.669,11.523 -6.99,17.459 -1.321,5.936 -1.983,12.034 -1.983,18.294 0,6.353 0.591,12.312 1.774,17.877 1.182,5.565 3.489,11.291 6.921,17.181 3.524,5.982 8.509,10.178 14.955,12.59 C -56.088,-1.206 -48.528,0 -39.856,0 Z" /></g><g
           transform="translate(749.6064,774.1583)"
           id="g40"><path
             id="path42"
             style="fill:#000000;fill-opacity:1;fill-rule:nonzero;stroke:none"
             d="M 0,0 H 27.337 L 13.703,38.466 Z M 30.188,61.49 67.263,-40.622 H 41.596 L 34.779,-22.12 H 11.269 L -0.695,-1.878 -15.372,-40.622 H -41.735 L -3.965,61.49 Z" /></g><g
           transform="translate(844.832,755.169)"
           id="g44"><path
             id="path46"
             style="fill:#000000;fill-opacity:1;fill-rule:nonzero;stroke:none"
             d="m 0,0 h 13.563 4.661 c 5.982,0 10.828,0.671 14.538,2.017 3.71,1.344 6.514,3.71 8.417,7.095 1.9,3.431 3.187,6.782 3.86,10.051 0.672,3.27 1.009,6.712 1.009,10.33 0,7.79 -1.346,13.772 -4.035,17.946 -1.298,2.179 -2.712,3.965 -4.242,5.356 -1.531,1.391 -3.224,2.492 -5.079,3.304 -1.855,0.811 -3.964,1.356 -6.33,1.634 -2.365,0.279 -5.032,0.418 -7.999,0.418 H 14.26 l -14.26,0 z m 21.98,80.479 c 5.008,0 9.599,-0.208 13.773,-0.626 4.174,-0.417 7.93,-1.171 11.268,-2.261 3.339,-1.09 6.284,-2.632 8.834,-4.625 2.55,-1.994 4.683,-4.568 6.4,-7.721 3.617,-6.261 6.109,-12.289 7.477,-18.085 1.368,-5.798 2.052,-11.872 2.052,-18.225 0,-6.167 -0.591,-11.988 -1.773,-17.459 C 68.828,6.005 66.521,0.231 63.09,-5.843 59.704,-11.918 54.869,-16.068 48.586,-18.294 42.303,-20.52 34.269,-21.633 24.484,-21.633 h -48.83 V 80.479 Z" /></g><g
           transform="translate(923.7119,835.648)"
           id="g48"><path
             id="path50"
             style="fill:#000000;fill-opacity:1;fill-rule:nonzero;stroke:none"
             d="M 0,0 H 76.653 L 65.663,-20.033 H 24.346 V -42.848 H 74.219 V -62.811 H 24.346 v -19.198 h 49.873 v -20.103 H 0 Z" /></g><g
           transform="translate(1007.5996,835.648)"
           id="g52"><path
             id="path54"
             style="fill:#000000;fill-opacity:1;fill-rule:nonzero;stroke:none"
             d="M 0,0 H 39.301 L 58.15,-82.009 77.21,0 h 39.579 V -102.112 H 94.46 v 82.775 L 74.497,-102.112 H 40.9 l -18.711,85.07 v -85.07 H 0 Z" /></g><g
           transform="translate(1126.7529,835.648)"
           id="g56"><path
             id="path58"
             style="fill:#000000;fill-opacity:1;fill-rule:nonzero;stroke:none"
             d="M 0,0 H 27.894 L 49.874,-32.136 69.976,0 H 98.564 L 62.116,-56.69 v -45.422 H 37.771 v 45.005 z" /></g></g></g><g
       id="g60"><g
         id="g62"><g
           id="g68"><g
             id="g70"><path
               id="path84"
               style="fill:url(#linearGradient82);stroke:none"
               d="m 231.604,835.648 h -3.965 c -3.433,0 -6.736,-0.185 -9.912,-0.556 v 0 c -3.177,-0.373 -6.145,-1.033 -8.904,-1.983 v 0 c -2.759,-0.951 -5.229,-2.26 -7.408,-3.93 v 0 c -2.179,-1.67 -3.988,-3.78 -5.426,-6.33 v 0 c -2.828,-5.333 -4.242,-11.268 -4.242,-17.806 v 0 c 0,-3.433 0.406,-6.691 1.217,-9.773 v 0 c 0.81,-3.085 1.947,-5.903 3.409,-8.452 v 0 c 1.46,-2.551 3.187,-4.799 5.182,-6.748 v 0 c 1.993,-1.947 4.196,-3.501 6.608,-4.66 v 0 c 4.544,-2.086 10.271,-3.13 17.181,-3.13 v 0 h 16.554 3.826 c 3.802,0.371 6.701,-0.372 8.695,-2.226 v 0 c 1.994,-1.855 3.037,-4.058 3.13,-6.607 v 0 c 0.092,-1.439 -0.162,-2.772 -0.765,-4 v 0 c -0.604,-1.229 -1.6,-2.319 -2.991,-3.27 v 0 c -1.392,-0.95 -3.154,-1.658 -5.286,-2.121 v 0 c -2.134,-0.464 -4.661,-0.603 -7.582,-0.418 v 0 h -2.573 -46.049 v -20.102 h 54.117 c 8.114,0 14.676,0.718 19.685,2.156 v 0 c 5.053,1.623 9.088,5.124 12.103,10.503 v 0 c 3.245,5.519 4.869,12.034 4.869,19.547 v 0 c 0,3.339 -0.406,6.526 -1.217,9.564 v 0 c -0.813,3.036 -1.925,5.784 -3.339,8.243 v 0 c -1.415,2.457 -3.095,4.613 -5.043,6.468 v 0 c -1.948,1.855 -4.081,3.293 -6.399,4.313 v 0 c -4.452,2.133 -10.528,3.2 -18.225,3.2 v 0 h -16.345 c -3.804,0 -6.818,0.185 -9.044,0.557 v 0 c -2.225,0.37 -3.871,1.414 -4.938,3.13 v 0 c -1.067,1.901 -1.6,3.616 -1.6,5.147 v 0 c 0.139,1.391 0.418,2.678 0.834,3.861 v 0 c 0.418,1.182 1.171,2.201 2.261,3.06 v 0 c 1.089,0.858 2.516,1.507 4.279,1.948 v 0 c 1.761,0.44 3.964,0.567 6.607,0.382 v 0 h 3.826 37.075 l 12.52,20.033 z" /></g></g></g></g><g
       id="g86"><g
         id="g88"><g
           id="g94"><g
             id="g96"><path
               id="path110"
               style="fill:url(#linearGradient108);stroke:none"
               d="m 336.498,835.648 c -8.672,0 -16.231,-1.206 -22.676,-3.617 v 0 c -6.446,-2.412 -11.431,-6.608 -14.955,-12.59 v 0 c -3.432,-5.89 -5.739,-11.616 -6.921,-17.181 v 0 c -1.182,-5.565 -1.773,-11.524 -1.773,-17.877 v 0 c 0,-6.26 0.66,-12.359 1.981,-18.294 v 0 c 1.323,-5.935 3.653,-11.755 6.992,-17.458 v 0 c 1.714,-2.83 3.616,-5.217 5.703,-7.165 v 0 c 2.087,-1.948 4.51,-3.49 7.269,-4.625 v 0 c 2.759,-1.138 5.935,-1.972 9.529,-2.505 v 0 c 3.594,-0.534 7.732,-0.8 12.417,-0.8 v 0 h 38.744 v 21.216 h -27.824 c -7.651,0 -13.193,0.532 -16.624,1.6 v 0 c -3.247,1.112 -6.006,3.709 -8.278,7.79 v 0 c -1.112,2.087 -2.006,4.011 -2.678,5.773 v 0 c -0.672,1.762 -1.229,3.454 -1.669,5.079 v 0 c -0.441,1.621 -0.731,3.21 -0.869,4.764 v 0 c -0.14,1.553 -0.209,3.28 -0.209,5.182 v 0 c 0,3.339 0.312,6.573 0.939,9.703 v 0 c 0.626,3.13 1.936,6.411 3.93,9.843 v 0 c 1.993,3.431 4.938,5.784 8.834,7.06 v 0 c 3.896,1.275 8.879,1.913 14.955,1.913 v 0 h 4.521 16.416 l 12.104,22.189 z" /></g></g></g></g><g
       id="g112"><g
         id="g114"><g
           id="g120"><g
             id="g122"><path
               id="path136"
               style="fill:url(#linearGradient134);stroke:none"
               d="M 414.265,835.648 376.494,733.536 h 26.363 l 14.677,38.744 11.964,-20.242 h 23.511 l 6.816,-18.502 h 25.667 l -37.074,102.112 z m 17.667,-23.024 13.634,-38.466 h -27.337 z" /></g></g></g></g><g
       id="g138"><g
         id="g140"><g
           id="g146"><g
             id="g148"><path
               id="path162"
               style="fill:url(#linearGradient160);stroke:none"
               d="m 547.956,835.648 -37.77,-102.112 h 26.362 l 14.678,38.744 11.963,-20.242 H 586.7 l 6.817,-18.502 h 25.667 l -37.075,102.112 z m 17.668,-23.024 13.633,-38.466 H 551.92 Z" /></g></g></g></g><g
       id="g164"><g
         id="g166"><g
           id="g172"><g
             id="g174"><path
               id="path188"
               style="fill:url(#linearGradient186);stroke:none"
               d="m 667.875,835.648 c -8.672,0 -16.232,-1.206 -22.677,-3.617 v 0 c -6.445,-2.412 -11.431,-6.608 -14.955,-12.59 v 0 c -3.432,-5.89 -5.738,-11.616 -6.921,-17.181 v 0 c -1.183,-5.565 -1.773,-11.524 -1.773,-17.877 v 0 c 0,-6.26 0.661,-12.359 1.982,-18.294 v 0 c 1.322,-5.935 3.652,-11.755 6.99,-17.458 v 0 c 1.716,-2.83 3.618,-5.217 5.704,-7.165 v 0 c 2.087,-1.948 4.51,-3.49 7.269,-4.625 v 0 c 2.759,-1.138 5.936,-1.972 9.531,-2.505 v 0 c 3.592,-0.534 7.731,-0.8 12.415,-0.8 v 0 h 38.744 v 21.216 h -27.822 c -7.653,0 -13.194,0.532 -16.626,1.6 v 0 c -3.245,1.112 -6.006,3.709 -8.277,7.79 v 0 c -1.114,2.087 -2.007,4.011 -2.678,5.773 v 0 c -0.673,1.762 -1.229,3.454 -1.669,5.079 v 0 c -0.442,1.621 -0.731,3.21 -0.87,4.764 v 0 c -0.139,1.553 -0.208,3.28 -0.208,5.182 v 0 c 0,3.339 0.313,6.573 0.938,9.703 v 0 c 0.627,3.13 1.936,6.411 3.93,9.843 v 0 c 1.993,3.431 4.939,5.784 8.834,7.06 v 0 c 3.896,1.275 8.88,1.913 14.955,1.913 v 0 h 4.522 16.416 l 12.102,22.189 z" /></g></g></g></g><g
       id="g190"><g
         id="g192"><g
           id="g198"><g
             id="g200"><path
               id="path214"
               style="fill:url(#linearGradient212);stroke:none"
               d="M 745.642,835.648 707.871,733.536 h 26.363 l 14.677,38.744 11.964,-20.242 h 23.511 l 6.816,-18.502 h 25.667 l -37.074,102.112 z m 17.668,-23.024 13.633,-38.466 h -27.337 z" /></g></g></g></g><g
       id="g216"><g
         id="g218"><g
           id="g224"><g
             id="g226"><path
               id="path240"
               style="fill:url(#linearGradient238);stroke:none"
               d="M 820.486,835.648 V 733.536 h 48.83 c 9.784,0 17.819,1.113 24.102,3.339 v 0 c 6.283,2.226 11.118,6.376 14.504,12.451 v 0 c 3.431,6.075 5.738,11.848 6.921,17.32 v 0 c 1.182,5.471 1.773,11.291 1.773,17.459 v 0 c 0,6.353 -0.684,12.427 -2.051,18.224 v 0 c -1.368,5.796 -3.861,11.825 -7.478,18.086 v 0 c -1.717,3.153 -3.85,5.726 -6.399,7.721 v 0 c -2.551,1.992 -5.496,3.535 -8.835,4.625 v 0 c -3.339,1.09 -7.095,1.843 -11.268,2.261 v 0 c -4.174,0.417 -8.765,0.626 -13.773,0.626 v 0 z m 24.346,-22.328 h 14.259 4.104 c 2.967,0 5.634,-0.139 8,-0.418 v 0 c 2.365,-0.278 4.474,-0.823 6.329,-1.635 v 0 c 1.855,-0.811 3.548,-1.912 5.078,-3.303 v 0 c 1.531,-1.391 2.945,-3.177 4.243,-5.356 v 0 c 2.689,-4.174 4.035,-10.156 4.035,-17.947 v 0 c 0,-3.617 -0.337,-7.059 -1.009,-10.329 v 0 c -0.673,-3.269 -1.96,-6.619 -3.861,-10.051 v 0 c -1.901,-3.385 -4.707,-5.751 -8.416,-7.095 v 0 c -3.71,-1.345 -8.556,-2.017 -14.538,-2.017 v 0 h -4.66 -13.564 z" /></g></g></g></g><g
       id="g242"><g
         id="g244"><g
           id="g250"><g
             id="g252"><path
               id="path266"
               style="fill:url(#linearGradient264);stroke:none"
               d="M 923.712,835.648 V 733.536 h 74.219 v 20.102 h -49.874 v 19.199 h 49.874 V 792.8 h -49.874 v 22.815 h 41.318 l 10.99,20.033 z" /></g></g></g></g><g
       id="g268"><g
         id="g270"><g
           id="g276"><g
             id="g278"><path
               id="path292"
               style="fill:url(#linearGradient290);stroke:none"
               d="m 1084.81,835.648 -19.06,-82.01 -18.849,82.01 h -39.302 V 733.536 h 22.19 v 85.071 l 18.711,-85.071 h 33.597 l 19.963,82.775 v -82.775 h 22.329 v 102.112 z" /></g></g></g></g><g
       id="g294"><g
         id="g296"><g
           id="g302"><g
             id="g304"><path
               id="path318"
               style="fill:url(#linearGradient316);stroke:none"
               d="m 1196.728,835.648 -20.101,-32.136 -21.98,32.136 h -27.894 l 37.77,-57.108 v -45.004 h 24.346 v 45.422 l 36.449,56.69 z" /></g></g></g></g></g></svg>