<svg width="655" height="155" viewBox="0 0 655 155" fill="none" xmlns="http://www.w3.org/2000/svg">
<path d="M56.7695 42.7136C56.7826 51.6357 63.8562 58.8644 72.5726 58.8511L250.559 58.6168C259.276 58.6034 266.336 51.3613 266.323 42.4392C266.31 33.5171 259.236 26.2883 250.52 26.3017L72.5335 26.536C63.8171 26.5494 56.7565 33.7915 56.7695 42.7136Z" fill="url(#paint0_linear_29_2503)" fill-opacity="0.1"/>
<path d="M654.306 374.823C656.621 384.307 652.083 9.90603 654.306 0C651.79 0.207491 640.589 0.501995 640.589 0.501995L343.767 0C335.07 0.0133865 327.625 6.98777 327.469 15.8764C327.312 24.9458 334.457 32.3218 343.272 32.3084L358.508 32.295C367.785 32.2816 375.712 40.0525 375.523 49.5636C375.321 59.4161 367.459 67.3677 357.784 67.3677L293.809 67.4614C284.59 67.4614 276.682 74.8575 276.545 84.2883C276.422 93.8463 283.951 101.617 293.255 101.617L487.575 101.282L544.617 101.282C553.314 101.269 560.929 107.855 561.757 116.724C562.709 126.878 554.95 135.425 545.217 135.445L492.377 135.505C483.159 135.519 475.251 142.901 475.114 152.332C474.977 161.89 482.52 169.681 491.81 169.661L500.768 169.647C508.878 169.647 515.684 176.428 515.619 184.721C515.508 195.778 506.739 204.713 495.911 204.734L463.242 204.78L317.892 204.968C309.182 204.968 301.684 211.956 301.567 220.878C301.443 229.914 308.569 237.276 317.37 237.276L467.33 237.718L513.083 237.859C523.449 237.892 531.807 246.72 531.376 257.443C531.057 265.676 524.231 272.075 516.186 272.095L477.845 272.141L296.019 272.376C286.82 272.376 278.892 279.772 278.769 289.203C278.632 298.761 286.155 306.531 295.465 306.531L350.665 306.451C360.959 306.438 369.31 314.965 369.33 325.5C369.33 329.663 367.687 333.432 365.027 336.176C362.354 338.907 358.684 340.593 354.615 340.607L305.863 340.667C296.677 340.667 288.815 348.03 288.659 357.447C288.489 367.018 296.032 374.823 305.355 374.809L654.006 374.575C654.006 374.649 654.006 374.742 654.006 374.809L654.306 374.823Z" fill="url(#paint1_linear_29_2503)" fill-opacity="0.1"/>
<defs>
<linearGradient id="paint0_linear_29_2503" x1="67.8473" y1="28.0161" x2="901.868" y2="274.146" gradientUnits="userSpaceOnUse">
<stop stop-color="#F2C964"/>
<stop offset="0.219259" stop-color="#A9E479"/>
<stop offset="0.418408" stop-color="#3DCAAC"/>
<stop offset="1" stop-color="#999999"/>
<stop offset="1" stop-color="#0130FC"/>
</linearGradient>
<linearGradient id="paint1_linear_29_2503" x1="229.019" y1="204.762" x2="805.122" y2="207.487" gradientUnits="userSpaceOnUse">
<stop stop-color="#F2C964"/>
<stop offset="0.219259" stop-color="#A9E479"/>
<stop offset="0.418408" stop-color="#3DCAAC"/>
<stop offset="0.828281" stop-color="#0130FC"/>
<stop offset="1" stop-color="#999999"/>
</linearGradient>
</defs>
</svg>
