<svg width="412" height="279" viewBox="0 0 412 279" fill="none" xmlns="http://www.w3.org/2000/svg">
<path d="M213.974 38.1261C213.984 44.7602 219.244 50.1352 225.725 50.1252L287.453 50.0406C293.935 50.0307 299.184 44.6458 299.175 38.0117C299.165 31.3776 293.906 26.0026 287.424 26.0126L225.696 26.0922C219.215 26.1022 213.97 31.4921 213.974 38.1261Z" fill="url(#paint0_linear_29_2827)" fill-opacity="0.1"/>
<path d="M258.592 139.527C258.602 146.161 263.862 151.536 270.343 151.526L323.201 151.456C329.682 151.446 334.932 146.062 334.922 139.427C334.912 132.793 329.653 127.418 323.171 127.428L270.314 127.498C263.833 127.503 258.583 132.893 258.592 139.527Z" fill="url(#paint1_linear_29_2827)" fill-opacity="0.1"/>
<path d="M369.789 247.24C369.779 240.606 364.52 235.231 358.039 235.241L225.696 235.415C219.215 235.425 213.965 240.81 213.974 247.444C213.984 254.078 219.244 259.453 225.725 259.443L358.068 259.269C364.549 259.259 369.799 253.874 369.789 247.24Z" fill="url(#paint2_linear_29_2827)" fill-opacity="0.1"/>
<path d="M356.164 29.3234C346.615 42.1934 360.833 56.7107 373.383 46.9014C382.937 34.0264 368.715 19.5091 356.164 29.3234Z" fill="url(#paint3_linear_29_2827)" fill-opacity="0.1"/>
<path d="M391.656 130.724C382.106 143.594 396.324 158.112 408.874 148.302C418.424 135.427 404.206 120.91 391.656 130.724Z" fill="url(#paint4_linear_29_2827)" fill-opacity="0.1"/>
<path d="M-74.513 0.298651C-76.2339 -6.75348 -72.86 271.634 -74.513 279C-72.6419 278.846 -64.3138 278.627 -64.3138 278.627L156.39 279C162.857 278.99 168.392 273.804 168.509 267.195C168.625 260.451 163.312 254.967 156.758 254.977L145.43 254.987C138.532 254.997 132.637 249.219 132.778 242.147C132.928 234.821 138.774 228.908 145.968 228.908L193.537 228.839C200.391 228.839 206.271 223.339 206.373 216.327C206.465 209.22 200.866 203.442 193.949 203.442L49.4607 203.691L7.04686 203.691C0.580236 203.701 -5.0817 198.804 -5.69734 192.209C-6.40508 184.66 -0.636511 178.304 6.60087 178.289L45.8902 178.244C52.7446 178.235 58.6247 172.745 58.7265 165.733C58.8283 158.626 53.2197 152.833 46.3119 152.848L39.6514 152.858C33.6211 152.858 28.5602 147.816 28.6087 141.65C28.6911 133.428 35.2111 126.784 43.2628 126.769L67.5539 126.734L175.63 126.595C182.106 126.595 187.681 121.399 187.768 114.765C187.86 108.047 182.562 102.572 176.018 102.572L64.5145 102.244L30.4944 102.139C22.7868 102.114 16.5723 95.5498 16.8922 87.577C17.1297 81.4555 22.2051 76.6977 28.187 76.6827L56.6954 76.6479L191.893 76.4737C198.733 76.4737 204.628 70.9743 204.72 63.962C204.822 56.8551 199.228 51.077 192.305 51.077L151.261 51.1368C143.607 51.1467 137.397 44.8063 137.383 36.9728C137.383 33.8772 138.604 31.0752 140.582 29.0348C142.57 27.0042 145.299 25.7501 148.324 25.7401L184.574 25.6953C191.404 25.6953 197.25 20.2208 197.366 13.2185C197.492 6.10164 191.884 0.298681 184.952 0.308634L-74.2901 0.482803C-74.2901 0.428058 -74.2901 0.358403 -74.2901 0.308634L-74.513 0.298651Z" fill="url(#paint5_linear_29_2827)" fill-opacity="0.1"/>
<defs>
<linearGradient id="paint0_linear_29_2827" x1="294.671" y1="48.8552" x2="-64.5347" y2="-9.32483" gradientUnits="userSpaceOnUse">
<stop stop-color="#F2C964"/>
<stop offset="0.219259" stop-color="#A9E479"/>
<stop offset="0.418408" stop-color="#3DCAAC"/>
<stop offset="1" stop-color="#999999"/>
<stop offset="1" stop-color="#0130FC"/>
</linearGradient>
<linearGradient id="paint1_linear_29_2827" x1="330.887" y1="150.257" x2="7.45765" y2="103.297" gradientUnits="userSpaceOnUse">
<stop stop-color="#F2C964"/>
<stop offset="0.219259" stop-color="#A9E479"/>
<stop offset="0.418408" stop-color="#3DCAAC"/>
<stop offset="1" stop-color="#999999"/>
<stop offset="1" stop-color="#0130FC"/>
</linearGradient>
<linearGradient id="paint2_linear_29_2827" x1="361.552" y1="258.168" x2="-258.588" y2="75.1576" gradientUnits="userSpaceOnUse">
<stop stop-color="#F2C964"/>
<stop offset="0.219259" stop-color="#A9E479"/>
<stop offset="0.418408" stop-color="#3DCAAC"/>
<stop offset="1" stop-color="#999999"/>
<stop offset="1" stop-color="#0130FC"/>
</linearGradient>
<linearGradient id="paint3_linear_29_2827" x1="375.271" y1="48.8596" x2="273.91" y2="44.3205" gradientUnits="userSpaceOnUse">
<stop stop-color="#F2C964"/>
<stop offset="0.219259" stop-color="#A9E479"/>
<stop offset="0.418408" stop-color="#3DCAAC"/>
<stop offset="1" stop-color="#999999"/>
<stop offset="1" stop-color="#0130FC"/>
</linearGradient>
<linearGradient id="paint4_linear_29_2827" x1="410.76" y1="150.261" x2="309.408" y2="145.722" gradientUnits="userSpaceOnUse">
<stop stop-color="#F2C964"/>
<stop offset="0.219259" stop-color="#A9E479"/>
<stop offset="0.418408" stop-color="#3DCAAC"/>
<stop offset="1" stop-color="#999999"/>
<stop offset="1" stop-color="#0130FC"/>
</linearGradient>
<linearGradient id="paint5_linear_29_2827" x1="241.712" y1="126.748" x2="-186.652" y2="124.722" gradientUnits="userSpaceOnUse">
<stop stop-color="#F2C964"/>
<stop offset="0.219259" stop-color="#A9E479"/>
<stop offset="0.418408" stop-color="#3DCAAC"/>
<stop offset="0.828281" stop-color="#0130FC"/>
<stop offset="1" stop-color="#999999"/>
</linearGradient>
</defs>
</svg>
