<svg width="1224" height="134" viewBox="0 0 1224 134" fill="none"
    xmlns="http://www.w3.org/2000/svg">
    <g filter="url(#filter0_d_1_29)">
        <path
            d="M39.2 73.6C39.2 75.4667 39.7333 77.2667 40.8 79C41.8667 80.6 43.2667 82.1333 45 83.6C46.8667 84.9333 49 86 51.4 86.8C53.9333 87.6 56.6 88 59.4 88H140C144.4 88 148 87.2667 150.8 85.8C153.733 84.3333 156 82.4667 157.6 80.2C159.333 77.9333 160.533 75.4667 161.2 72.8C162 70.1333 162.4 67.6 162.4 65.2V29.6C162.4 26.9333 163.333 24.6667 165.2 22.8C167.2 20.9333 169.467 20 172 20C174.667 20 176.933 20.9333 178.8 22.8C180.667 24.6667 181.6 26.9333 181.6 29.6V63.6C181.6 68.6667 180.733 73.8 179 79C177.267 84.0667 174.733 88.7333 171.4 93C168.2 97.1333 164.267 100.533 159.6 103.2C154.933 105.867 149.733 107.2 144 107.2H53.6C49.0667 107.2 44.7333 106.267 40.6 104.4C36.6 102.533 33.0667 100.067 30 97C26.9333 93.8 24.4667 90.2 22.6 86.2C20.8667 82.0667 20 77.8667 20 73.6C20 70.9333 20.9333 68.6667 22.8 66.8C24.8 64.9333 27.0667 64 29.6 64C32.2667 64 34.5333 64.9333 36.4 66.8C38.2667 68.6667 39.2 70.9333 39.2 73.6Z"
            fill="url(#paint0_linear_1_29)" />
        <path
            d="M220.841 88H331.841C333.841 88 335.574 87.2667 337.041 85.8C338.641 84.3333 339.441 82.6 339.441 80.6C339.441 78.4667 338.641 76.7333 337.041 75.4C335.574 73.9333 333.841 73.2 331.841 73.2H220.841V88ZM220.841 39.2V54H332.041C334.041 54 335.774 53.3333 337.241 52C338.707 50.6667 339.441 48.9333 339.441 46.8C339.441 44.8 338.641 43.0667 337.041 41.6C335.574 40 333.841 39.2 331.841 39.2H220.841ZM211.241 107.2C208.574 107.2 206.307 106.267 204.441 104.4C202.574 102.533 201.641 100.267 201.641 97.6V29.6C201.641 26.9333 202.574 24.6667 204.441 22.8C206.307 20.9333 208.574 20 211.241 20H331.041C334.774 20 338.241 20.7333 341.441 22.2C344.774 23.5333 347.641 25.4 350.041 27.8C352.574 30.2 354.507 33.0667 355.841 36.4C357.307 39.6 358.041 43.0667 358.041 46.8C358.041 50.1333 357.441 53.2667 356.241 56.2C355.174 59 353.707 61.5333 351.841 63.8C353.707 66.0667 355.174 68.6667 356.241 71.6C357.441 74.4 358.041 77.4 358.041 80.6C358.041 84.3333 357.307 87.8 355.841 91C354.507 94.2 352.574 97 350.041 99.4C347.641 101.8 344.774 103.733 341.441 105.2C338.241 106.533 334.774 107.2 331.041 107.2H211.241Z"
            fill="url(#paint1_linear_1_29)" />
        <path
            d="M540.247 97.6C540.247 94.1333 541.447 91.2 543.847 88.8C546.247 86.4 549.18 85.2 552.647 85.2C556.114 85.2 559.047 86.4 561.447 88.8C563.847 91.2 565.047 94.1333 565.047 97.6C565.047 101.067 563.847 104 561.447 106.4C559.047 108.8 556.114 110 552.647 110C549.18 110 546.247 108.8 543.847 106.4C541.447 104 540.247 101.067 540.247 97.6ZM487.247 97.6C487.247 100.267 486.314 102.533 484.447 104.4C482.58 106.267 480.314 107.2 477.647 107.2C474.98 107.2 472.714 106.267 470.847 104.4C468.98 102.533 468.047 100.267 468.047 97.6V29.6C468.047 26.9333 468.98 24.6667 470.847 22.8C472.714 20.9333 474.98 20 477.647 20C478.98 20 480.18 20.2667 481.247 20.8C482.314 21.3333 483.38 22 484.447 22.8C492.98 30.2667 500.314 36.1333 506.447 40.4C512.714 44.6667 518.38 47.8667 523.447 50C528.647 52.1333 533.514 53.4667 538.047 54C542.58 54.5333 547.447 54.8 552.647 54.8C557.847 54.8 562.647 54.6 567.047 54.2C571.58 53.6667 576.314 52.3333 581.247 50.2C586.314 48.0667 591.914 44.8667 598.047 40.6C604.314 36.3333 611.78 30.4 620.447 22.8C622.714 20.9333 624.98 20 627.247 20C629.914 20 632.18 20.9333 634.047 22.8C635.914 24.6667 636.847 26.9333 636.847 29.6V97.6C636.847 100.267 635.914 102.533 634.047 104.4C632.18 106.267 629.914 107.2 627.247 107.2C624.58 107.2 622.314 106.267 620.447 104.4C618.58 102.533 617.647 100.267 617.647 97.6V50.2C611.647 55 605.847 59 600.247 62.2C594.78 65.4 589.38 68 584.047 70C578.847 71.8667 573.647 73.2 568.447 74C563.247 74.8 557.98 75.2 552.647 75.2C546.914 75.2 541.38 74.8 536.047 74C530.847 73.2 525.58 71.8667 520.247 70C515.047 68 509.714 65.4 504.247 62.2C498.914 59 493.247 55 487.247 50.2V97.6Z"
            fill="url(#paint2_linear_1_29)" />
        <path
            d="M799.914 54C802.581 54 804.847 54.9333 806.714 56.8C808.581 58.6667 809.514 60.9333 809.514 63.6C809.514 66.2667 808.581 68.5333 806.714 70.4C804.847 72.2667 802.581 73.2 799.914 73.2H700.314C697.647 73.2 695.381 72.2667 693.514 70.4C691.647 68.5333 690.714 66.2667 690.714 63.6C690.714 60.9333 691.647 58.6667 693.514 56.8C695.381 54.9333 697.647 54 700.314 54H799.914ZM698.114 39.2C693.447 39.2 689.647 40.0667 686.714 41.8C683.914 43.4 681.647 45.4 679.914 47.8C678.314 50.2 677.181 52.8667 676.514 55.8C675.981 58.6 675.714 61.2 675.714 63.6C675.714 66 675.981 68.6667 676.514 71.6C677.181 74.4 678.314 77 679.914 79.4C681.647 81.8 683.914 83.8667 686.714 85.6C689.647 87.2 693.447 88 698.114 88H808.314C810.981 88 813.247 88.9333 815.114 90.8C816.981 92.6667 817.914 94.9333 817.914 97.6C817.914 100.267 816.981 102.533 815.114 104.4C813.247 106.267 810.981 107.2 808.314 107.2H691.714C686.247 107.2 681.381 105.867 677.114 103.2C672.847 100.533 669.181 97.1333 666.114 93C663.181 88.7333 660.914 84 659.314 78.8C657.714 73.6 656.914 68.5333 656.914 63.6C656.914 58.5333 657.714 53.4667 659.314 48.4C661.047 43.2 663.514 38.5333 666.714 34.4C669.914 30.1333 673.781 26.6667 678.314 24C682.847 21.3333 687.981 20 693.714 20H808.314C810.981 20 813.247 20.9333 815.114 22.8C816.981 24.6667 817.914 26.9333 817.914 29.6C817.914 32.2667 816.981 34.5333 815.114 36.4C813.247 38.2667 810.981 39.2 808.314 39.2H698.114Z"
            fill="url(#paint3_linear_1_29)" />
        <path
            d="M857.169 39.2V88H959.969C964.502 88 968.235 87.2 971.169 85.6C974.102 83.8667 976.369 81.8 977.969 79.4C979.702 77 980.835 74.4 981.369 71.6C982.035 68.6667 982.369 66 982.369 63.6C982.369 61.2 982.035 58.6 981.369 55.8C980.835 52.8667 979.702 50.2 977.969 47.8C976.369 45.4 974.102 43.4 971.169 41.8C968.235 40.0667 964.502 39.2 959.969 39.2H857.169ZM1000.97 63.6C1000.97 68.5333 1000.17 73.5333 998.569 78.6C996.969 83.6667 994.635 88.2667 991.569 92.4C988.635 96.5333 985.035 100 980.769 102.8C976.502 105.467 971.635 106.933 966.169 107.2H847.569C844.902 107.2 842.635 106.267 840.769 104.4C838.902 102.533 837.969 100.267 837.969 97.6V29.6C837.969 26.9333 838.902 24.6667 840.769 22.8C842.635 20.9333 844.902 20 847.569 20H964.169C969.902 20 975.035 21.3333 979.569 24C984.102 26.6667 987.969 30.1333 991.169 34.4C994.369 38.5333 996.769 43.2 998.369 48.4C1000.1 53.4667 1000.97 58.5333 1000.97 63.6Z"
            fill="url(#paint4_linear_1_29)" />
        <path
            d="M1040.18 97.6C1040.18 100.267 1039.24 102.533 1037.38 104.4C1035.51 106.267 1033.24 107.2 1030.58 107.2C1027.91 107.2 1025.64 106.267 1023.78 104.4C1021.91 102.533 1020.98 100.267 1020.98 97.6V29.6C1020.98 26.9333 1021.91 24.6667 1023.78 22.8C1025.64 20.9333 1027.91 20 1030.58 20C1033.24 20 1035.51 20.9333 1037.38 22.8C1039.24 24.6667 1040.18 26.9333 1040.18 29.6V97.6Z"
            fill="url(#paint5_linear_1_29)" />
        <path
            d="M1119.43 85.6C1119.43 82.1333 1120.63 79.2 1123.03 76.8C1125.43 74.4 1128.37 73.2 1131.83 73.2C1135.3 73.2 1138.23 74.4 1140.63 76.8C1143.03 79.2 1144.23 82.1333 1144.23 85.6C1144.23 89.0667 1143.03 92 1140.63 94.4C1138.23 96.8 1135.3 98 1131.83 98C1128.37 98 1125.43 96.8 1123.03 94.4C1120.63 92 1119.43 89.0667 1119.43 85.6ZM1077.23 103.6C1075.23 106 1072.77 107.2 1069.83 107.2C1067.17 107.2 1064.9 106.267 1063.03 104.4C1061.17 102.533 1060.23 100.267 1060.23 97.6C1060.23 95.2 1060.9 93.2667 1062.23 91.8L1110.83 26.4C1113.1 23.3333 1116.1 20.8667 1119.83 19C1123.57 17 1127.57 16 1131.83 16C1135.83 16 1139.63 16.8667 1143.23 18.6C1146.83 20.3333 1149.77 22.7333 1152.03 25.8L1200.63 90.8C1201.43 91.7333 1202.1 92.8 1202.63 94C1203.17 95.0667 1203.43 96.2667 1203.43 97.6C1203.43 100.267 1202.5 102.533 1200.63 104.4C1198.77 106.267 1196.5 107.2 1193.83 107.2C1190.63 107.2 1188.1 105.933 1186.23 103.4L1139.63 41.2C1138.7 40.1333 1137.5 39 1136.03 37.8C1134.7 36.4667 1133.3 35.8 1131.83 35.8C1130.37 35.8 1128.9 36.4667 1127.43 37.8C1126.1 39 1125.03 40.1333 1124.23 41.2L1077.23 103.6Z"
            fill="url(#paint6_linear_1_29)" />
    </g>
    <defs>
        <filter id="filter0_d_1_29" x="0" y="0" width="1223.43" height="134"
            filterUnits="userSpaceOnUse" color-interpolation-filters="sRGB">
            <feFlood flood-opacity="0" result="BackgroundImageFix" />
            <feColorMatrix in="SourceAlpha" type="matrix"
                values="0 0 0 0 0 0 0 0 0 0 0 0 0 0 0 0 0 0 127 0"
                result="hardAlpha" />
            <feOffset dy="4" />
            <feGaussianBlur stdDeviation="10" />
            <feComposite in2="hardAlpha" operator="out" />
            <feColorMatrix type="matrix"
                values="0 0 0 0 0.169629 0 0 0 0 0.169629 0 0 0 0 0.169629 0 0 0 0.8 0" />
            <feBlend mode="normal" in2="BackgroundImageFix"
                result="effect1_dropShadow_1_29" />
            <feBlend mode="normal" in="SourceGraphic"
                in2="effect1_dropShadow_1_29" result="shape" />
        </filter>
        <linearGradient id="paint0_linear_1_29" x1="9.75781" y1="56.8"
            x2="1213.76" y2="56.8" gradientUnits="userSpaceOnUse">
            <stop stop-color="#FFC45F" />
            <stop offset="0.521471" stop-color="#34C7AF" />
            <stop offset="1" stop-color="#008BE7" />
        </linearGradient>
        <linearGradient id="paint1_linear_1_29" x1="9.75781" y1="56.8"
            x2="1213.76" y2="56.8" gradientUnits="userSpaceOnUse">
            <stop stop-color="#FFC45F" />
            <stop offset="0.521471" stop-color="#34C7AF" />
            <stop offset="1" stop-color="#008BE7" />
        </linearGradient>
        <linearGradient id="paint2_linear_1_29" x1="9.75781" y1="56.8"
            x2="1213.76" y2="56.8" gradientUnits="userSpaceOnUse">
            <stop stop-color="#FFC45F" />
            <stop offset="0.521471" stop-color="#34C7AF" />
            <stop offset="1" stop-color="#008BE7" />
        </linearGradient>
        <linearGradient id="paint3_linear_1_29" x1="9.75781" y1="56.8"
            x2="1213.76" y2="56.8" gradientUnits="userSpaceOnUse">
            <stop stop-color="#FFC45F" />
            <stop offset="0.521471" stop-color="#34C7AF" />
            <stop offset="1" stop-color="#008BE7" />
        </linearGradient>
        <linearGradient id="paint4_linear_1_29" x1="9.75781" y1="56.8"
            x2="1213.76" y2="56.8" gradientUnits="userSpaceOnUse">
            <stop stop-color="#FFC45F" />
            <stop offset="0.521471" stop-color="#34C7AF" />
            <stop offset="1" stop-color="#008BE7" />
        </linearGradient>
        <linearGradient id="paint5_linear_1_29" x1="9.75781" y1="56.8"
            x2="1213.76" y2="56.8" gradientUnits="userSpaceOnUse">
            <stop stop-color="#FFC45F" />
            <stop offset="0.521471" stop-color="#34C7AF" />
            <stop offset="1" stop-color="#008BE7" />
        </linearGradient>
        <linearGradient id="paint6_linear_1_29" x1="9.75781" y1="56.8"
            x2="1213.76" y2="56.8" gradientUnits="userSpaceOnUse">
            <stop stop-color="#FFC45F" />
            <stop offset="0.521471" stop-color="#34C7AF" />
            <stop offset="1" stop-color="#008BE7" />
        </linearGradient>
    </defs>
</svg>