<?xml version="1.0" encoding="UTF-8"?><svg id="Layer_1" xmlns="http://www.w3.org/2000/svg" viewBox="0 0 1280 1280"><defs><style>.cls-1{fill:#fff;stroke-width:0px;}</style></defs><path class="cls-1" d="m630.62,245.05c168.13,0,314.61,90.03,391.39,223.23-72.94-151.69-220.82-255.48-391.39-255.48s-318.45,103.78-391.39,255.48c76.77-133.2,223.26-223.23,391.39-223.23Z"/><path class="cls-1" d="m630.62,1032.16c-173.55,0-324.05-95.92-398.61-236.24,70.06,160.23,222.18,271.27,398.61,271.27s328.55-111.04,398.61-271.27c-74.55,140.32-225.06,236.24-398.61,236.24Z"/><path class="cls-1" d="m555.77,582.04h27.71l22.73,100.14,26.24-100.14h28.82l24.76,99.59,22.91-99.59h27.9l-36.03,128.96h-30.49l-24.2-91.83-25.31,91.83-30.3.19-34.73-129.15Z"/><path class="cls-1" d="m820.35,712.3c-36.4,0-66.15-27.35-66.15-66.14s29.75-65.96,66.15-65.96,65.96,27.35,65.96,65.96-29.38,66.14-65.96,66.14Zm0-23.1c23.28,0,39.35-16.81,39.35-43.05s-16.08-42.68-39.35-42.68-39.54,16.44-39.54,42.68,16.08,43.05,39.54,43.05Z"/><path class="cls-1" d="m964.2,582.04c31.04,0,46.56,17.92,46.56,39.54,0,15.7-8.68,31.6-29.38,37.14l30.85,52.29h-29.93l-28.45-50.26h-12.2v50.26h-25.87v-128.96h48.41Zm-.92,21.43h-21.62v37.88h21.62c14.41,0,20.88-7.57,20.88-19.22s-6.47-18.66-20.88-18.66Z"/><path class="cls-1" d="m1073.77,582.04v108.46h59.6v20.51h-85.47v-128.96h25.87Z"/><path class="cls-1" d="m1280,646.71c0,38.99-26.79,64.3-67.99,64.3h-45.08v-128.96h45.08c41.2,0,67.99,25.5,67.99,64.66Zm-68.92,42.31c27.16,0,42.5-15.52,42.5-42.31s-15.34-42.86-42.5-42.86h-18.29v85.18h18.29Z"/><path class="cls-1" d="m555.77,582.04h27.71l22.73,100.14,26.24-100.14h28.82l24.76,99.59,22.91-99.59h27.9l-36.03,128.96h-30.49l-24.2-91.83-25.31,91.83-30.3.19-34.73-129.15Z"/><path class="cls-1" d="m820.35,712.3c-36.4,0-66.15-27.35-66.15-66.14s29.75-65.96,66.15-65.96,65.96,27.35,65.96,65.96-29.38,66.14-65.96,66.14Zm0-23.1c23.28,0,39.35-16.81,39.35-43.05s-16.08-42.68-39.35-42.68-39.54,16.44-39.54,42.68,16.08,43.05,39.54,43.05Z"/><path class="cls-1" d="m964.2,582.04c31.04,0,46.56,17.92,46.56,39.54,0,15.7-8.68,31.6-29.38,37.14l30.85,52.29h-29.93l-28.45-50.26h-12.2v50.26h-25.87v-128.96h48.41Zm-.92,21.43h-21.62v37.88h21.62c14.41,0,20.88-7.57,20.88-19.22s-6.47-18.66-20.88-18.66Z"/><path class="cls-1" d="m1073.77,582.04v108.46h59.6v20.51h-85.47v-128.96h25.87Z"/><path class="cls-1" d="m1280,646.71c0,38.99-26.79,64.3-67.99,64.3h-45.08v-128.96h45.08c41.2,0,67.99,25.5,67.99,64.66Zm-68.92,42.31c27.16,0,42.5-15.52,42.5-42.31s-15.34-42.86-42.5-42.86h-18.29v85.18h18.29Z"/><path class="cls-1" d="m555.77,582.04h27.71l22.73,100.14,26.24-100.14h28.82l24.76,99.59,22.91-99.59h27.9l-36.03,128.96h-30.49l-24.2-91.83-25.31,91.83-30.3.19-34.73-129.15Z"/><path class="cls-1" d="m820.35,712.3c-36.4,0-66.15-27.35-66.15-66.14s29.75-65.96,66.15-65.96,65.96,27.35,65.96,65.96-29.38,66.14-65.96,66.14Zm0-23.1c23.28,0,39.35-16.81,39.35-43.05s-16.08-42.68-39.35-42.68-39.54,16.44-39.54,42.68,16.08,43.05,39.54,43.05Z"/><path class="cls-1" d="m964.2,582.04c31.04,0,46.56,17.92,46.56,39.54,0,15.7-8.68,31.6-29.38,37.14l30.85,52.29h-29.93l-28.45-50.26h-12.2v50.26h-25.87v-128.96h48.41Zm-.92,21.43h-21.62v37.88h21.62c14.41,0,20.88-7.57,20.88-19.22s-6.47-18.66-20.88-18.66Z"/><path class="cls-1" d="m1073.77,582.04v108.46h59.6v20.51h-85.47v-128.96h25.87Z"/><path class="cls-1" d="m1280,646.71c0,38.99-26.79,64.3-67.99,64.3h-45.08v-128.96h45.08c41.2,0,67.99,25.5,67.99,64.66Zm-68.92,42.31c27.16,0,42.5-15.52,42.5-42.31s-15.34-42.86-42.5-42.86h-18.29v85.18h18.29Z"/><path class="cls-1" d="m47.85,712.3c-26.79,0-47.48-14.04-47.85-38.43h27.72c.74,10.34,7.57,17.18,19.58,17.18s19.4-6.47,19.4-15.7c0-27.9-66.52-11.09-66.33-57.83,0-23.28,18.85-37.32,45.45-37.32s44.53,13.49,46.19,36.77h-28.45c-.55-8.5-7.39-15.15-18.47-15.34-10.16-.37-17.74,4.62-17.74,15.15,0,25.87,66.14,11.46,66.14,56.91,0,20.32-16.26,38.62-45.64,38.62Z"/><path class="cls-1" d="m115.85,582.04h94.6v20.88h-34.37v108.08h-25.87v-108.08h-34.37v-20.88Z"/><path class="cls-1" d="m433.94,582.04c31.04,0,46.56,17.92,46.56,39.54,0,15.7-8.68,31.6-29.38,37.14l30.85,52.29h-29.93l-28.45-50.26h-12.2v50.26h-25.87v-128.96h48.41Zm-.92,21.43h-21.62v37.88h21.62c14.41,0,20.88-7.57,20.88-19.22s-6.47-18.66-20.88-18.66Z"/><polygon class="cls-1" points="304.69 581.86 274.57 581.86 228.19 711.01 255.35 711.01 289.53 611.79 323.72 711.01 351.06 711.01 304.69 581.86"/><path class="cls-1" d="m47.85,712.3c-26.79,0-47.48-14.04-47.85-38.43h27.72c.74,10.34,7.57,17.18,19.58,17.18s19.4-6.47,19.4-15.7c0-27.9-66.52-11.09-66.33-57.83,0-23.28,18.85-37.32,45.45-37.32s44.53,13.49,46.19,36.77h-28.45c-.55-8.5-7.39-15.15-18.47-15.34-10.16-.37-17.74,4.62-17.74,15.15,0,25.87,66.14,11.46,66.14,56.91,0,20.32-16.26,38.62-45.64,38.62Z"/><path class="cls-1" d="m115.85,582.04h94.6v20.88h-34.37v108.08h-25.87v-108.08h-34.37v-20.88Z"/><path class="cls-1" d="m433.94,582.04c31.04,0,46.56,17.92,46.56,39.54,0,15.7-8.68,31.6-29.38,37.14l30.85,52.29h-29.93l-28.45-50.26h-12.2v50.26h-25.87v-128.96h48.41Zm-.92,21.43h-21.62v37.88h21.62c14.41,0,20.88-7.57,20.88-19.22s-6.47-18.66-20.88-18.66Z"/><polygon class="cls-1" points="304.69 581.86 274.57 581.86 228.19 711.01 255.35 711.01 289.53 611.79 323.72 711.01 351.06 711.01 304.69 581.86"/><path class="cls-1" d="m47.85,712.3c-26.79,0-47.48-14.04-47.85-38.43h27.72c.74,10.34,7.57,17.18,19.58,17.18s19.4-6.47,19.4-15.7c0-27.9-66.52-11.09-66.33-57.83,0-23.28,18.85-37.32,45.45-37.32s44.53,13.49,46.19,36.77h-28.45c-.55-8.5-7.39-15.15-18.47-15.34-10.16-.37-17.74,4.62-17.74,15.15,0,25.87,66.14,11.46,66.14,56.91,0,20.32-16.26,38.62-45.64,38.62Z"/><path class="cls-1" d="m115.85,582.04h94.6v20.88h-34.37v108.08h-25.87v-108.08h-34.37v-20.88Z"/><path class="cls-1" d="m433.94,582.04c31.04,0,46.56,17.92,46.56,39.54,0,15.7-8.68,31.6-29.38,37.14l30.85,52.29h-29.93l-28.45-50.26h-12.2v50.26h-25.87v-128.96h48.41Zm-.92,21.43h-21.62v37.88h21.62c14.41,0,20.88-7.57,20.88-19.22s-6.47-18.66-20.88-18.66Z"/><polygon class="cls-1" points="304.69 581.86 274.57 581.86 228.19 711.01 255.35 711.01 289.53 611.79 323.72 711.01 351.06 711.01 304.69 581.86"/><path class="cls-1" d="m1021.19,549.09c1.01-83.78,1.83-84.77,71.34-85.98-69.51-1.22-70.33-2.2-71.34-85.98-1.01,83.78-1.83,84.77-71.34,85.98,69.51,1.22,70.33,2.2,71.34,85.98Z"/></svg>