<svg width="156" height="100" viewBox="0 0 156 100" fill="none" xmlns="http://www.w3.org/2000/svg">
<path d="M84.6432 13.6135C84.6466 15.9928 86.5329 17.9204 88.8573 17.9169L110.995 17.8865C113.32 17.883 115.203 15.9517 115.199 13.5725C115.196 11.1933 113.309 9.2656 110.985 9.26917L88.8469 9.29772C86.5225 9.30129 84.6414 11.2343 84.6432 13.6135Z" fill="url(#paint0_linear_29_5253)" fill-opacity="0.1"/>
<path d="M100.645 49.9796C100.648 52.3589 102.535 54.2865 104.859 54.283L123.816 54.258C126.14 54.2544 128.023 52.3232 128.02 49.9439C128.016 47.5647 126.13 45.637 123.805 45.6406L104.849 45.6656C102.524 45.6674 100.641 47.6004 100.645 49.9796Z" fill="url(#paint1_linear_29_5253)" fill-opacity="0.1"/>
<path d="M140.523 88.6097C140.52 86.2305 138.634 84.3028 136.309 84.3064L88.8462 84.3688C86.5218 84.3724 84.639 86.3036 84.6425 88.6829C84.646 91.0621 86.5322 92.9898 88.8566 92.9862L136.32 92.9237C138.644 92.9202 140.527 90.9889 140.523 88.6097Z" fill="url(#paint2_linear_29_5253)" fill-opacity="0.1"/>
<path d="M135.638 10.4565C132.213 15.0722 137.312 20.2787 141.813 16.7607C145.24 12.1432 140.139 6.93677 135.638 10.4565Z" fill="url(#paint3_linear_29_5253)" fill-opacity="0.1"/>
<path d="M148.366 46.8226C144.941 51.4383 150.04 56.6448 154.541 53.1268C157.966 48.5093 152.867 43.3029 148.366 46.8226Z" fill="url(#paint4_linear_29_5253)" fill-opacity="0.1"/>
<path d="M-18.8187 0.0472488C-19.4358 -2.48192 -18.2258 97.3584 -18.8187 100C-18.1476 99.9447 -15.1609 99.8661 -15.1609 99.8661L63.9918 100C66.311 99.9964 68.2963 98.1366 68.3381 95.7663C68.3798 93.3478 66.4744 91.3809 64.1239 91.3844L60.061 91.388C57.5871 91.3916 55.4731 89.3193 55.5235 86.783C55.5774 84.1557 57.674 82.0353 60.254 82.0353L77.314 82.0103C79.7722 82.0103 81.8811 80.038 81.9176 77.5231C81.9506 74.9743 79.9426 72.9021 77.4618 72.9021L25.643 72.9913L10.4318 72.9913C8.11259 72.9949 6.082 71.2386 5.86121 68.8736C5.60739 66.166 7.67622 63.8867 10.2718 63.8814L24.3624 63.8653C26.8207 63.8617 28.9295 61.893 28.966 59.3781C29.0025 56.8293 26.9911 54.7518 24.5137 54.7571L22.125 54.7607C19.9623 54.7607 18.1473 52.9526 18.1646 50.7411C18.1942 47.7925 20.5325 45.4097 23.4202 45.4044L32.1318 45.3919L70.8919 45.3419C73.2146 45.3419 75.2139 43.4785 75.2452 41.0993C75.2782 38.6897 73.378 36.7263 71.031 36.7263L31.0418 36.6085L18.8409 36.5711C16.0767 36.5621 13.8479 34.2079 13.9627 31.3485C14.0479 29.1531 15.8681 27.4468 18.0134 27.4414L28.2376 27.4289L76.7246 27.3665C79.1777 27.3665 81.2917 25.3942 81.3247 22.8793C81.3612 20.3305 79.355 18.2583 76.8724 18.2583L62.1524 18.2797C59.4073 18.2833 57.1803 16.0093 57.1751 13.2C57.1751 12.0898 57.6132 11.0849 58.3225 10.3531C59.0353 9.62486 60.0141 9.17508 61.0989 9.17151L74.0995 9.15544C76.549 9.15544 78.6457 7.19209 78.6874 4.68078C78.7326 2.12842 76.7212 0.0472565 74.2351 0.050827L-18.7387 0.113289C-18.7387 0.0936584 -18.7387 0.0686722 -18.7387 0.050827L-18.8187 0.0472488Z" fill="url(#paint5_linear_29_5253)" fill-opacity="0.1"/>
<defs>
<linearGradient id="paint0_linear_29_5253" x1="113.584" y1="17.4614" x2="-15.2407" y2="-3.40416" gradientUnits="userSpaceOnUse">
<stop stop-color="#F2C964"/>
<stop offset="0.219259" stop-color="#A9E479"/>
<stop offset="0.418408" stop-color="#3DCAAC"/>
<stop offset="1" stop-color="#999999"/>
<stop offset="1" stop-color="#0130FC"/>
</linearGradient>
<linearGradient id="paint1_linear_29_5253" x1="126.572" y1="53.8277" x2="10.5786" y2="36.9861" gradientUnits="userSpaceOnUse">
<stop stop-color="#F2C964"/>
<stop offset="0.219259" stop-color="#A9E479"/>
<stop offset="0.418408" stop-color="#3DCAAC"/>
<stop offset="1" stop-color="#999999"/>
<stop offset="1" stop-color="#0130FC"/>
</linearGradient>
<linearGradient id="paint2_linear_29_5253" x1="137.569" y1="92.529" x2="-84.8361" y2="26.8945" gradientUnits="userSpaceOnUse">
<stop stop-color="#F2C964"/>
<stop offset="0.219259" stop-color="#A9E479"/>
<stop offset="0.418408" stop-color="#3DCAAC"/>
<stop offset="1" stop-color="#999999"/>
<stop offset="1" stop-color="#0130FC"/>
</linearGradient>
<linearGradient id="paint3_linear_29_5253" x1="142.491" y1="17.463" x2="106.139" y2="15.8351" gradientUnits="userSpaceOnUse">
<stop stop-color="#F2C964"/>
<stop offset="0.219259" stop-color="#A9E479"/>
<stop offset="0.418408" stop-color="#3DCAAC"/>
<stop offset="1" stop-color="#999999"/>
<stop offset="1" stop-color="#0130FC"/>
</linearGradient>
<linearGradient id="paint4_linear_29_5253" x1="155.217" y1="53.8291" x2="118.868" y2="52.2014" gradientUnits="userSpaceOnUse">
<stop stop-color="#F2C964"/>
<stop offset="0.219259" stop-color="#A9E479"/>
<stop offset="0.418408" stop-color="#3DCAAC"/>
<stop offset="1" stop-color="#999999"/>
<stop offset="1" stop-color="#0130FC"/>
</linearGradient>
<linearGradient id="paint5_linear_29_5253" x1="94.5913" y1="45.3968" x2="-59.0361" y2="44.6702" gradientUnits="userSpaceOnUse">
<stop stop-color="#F2C964"/>
<stop offset="0.219259" stop-color="#A9E479"/>
<stop offset="0.418408" stop-color="#3DCAAC"/>
<stop offset="0.828281" stop-color="#0130FC"/>
<stop offset="1" stop-color="#999999"/>
</linearGradient>
</defs>
</svg>
