<svg width="171" height="100" viewBox="0 0 171 100" fill="none" xmlns="http://www.w3.org/2000/svg">
<path d="M99.6432 13.6137C99.6466 15.9929 101.533 17.9206 103.857 17.917L125.995 17.8866C128.32 17.8831 130.203 15.9518 130.199 13.5726C130.196 11.1934 128.309 9.26572 125.985 9.26929L103.847 9.29785C101.522 9.30142 99.6414 11.2344 99.6432 13.6137Z" fill="url(#paint0_linear_29_4861)" fill-opacity="0.1"/>
<path d="M115.645 49.9796C115.648 52.3589 117.535 54.2865 119.859 54.283L138.816 54.258C141.14 54.2544 143.023 52.3232 143.02 49.9439C143.016 47.5647 141.13 45.637 138.805 45.6406L119.849 45.6656C117.524 45.6674 115.641 47.6004 115.645 49.9796Z" fill="url(#paint1_linear_29_4861)" fill-opacity="0.1"/>
<path d="M155.523 88.6098C155.52 86.2306 153.634 84.3029 151.309 84.3065L103.846 84.369C101.522 84.3725 99.639 86.3038 99.6425 88.683C99.646 91.0622 101.532 92.9899 103.857 92.9863L151.32 92.9239C153.644 92.9203 155.527 90.9891 155.523 88.6098Z" fill="url(#paint2_linear_29_4861)" fill-opacity="0.1"/>
<path d="M150.638 10.4567C147.213 15.0723 152.312 20.2788 156.813 16.7608C160.24 12.1434 155.139 6.93689 150.638 10.4567Z" fill="url(#paint3_linear_29_4861)" fill-opacity="0.1"/>
<path d="M163.366 46.8226C159.941 51.4383 165.04 56.6448 169.541 53.1268C172.966 48.5093 167.867 43.3029 163.366 46.8226Z" fill="url(#paint4_linear_29_4861)" fill-opacity="0.1"/>
<path d="M-3.81867 0.0472488C-4.43584 -2.48192 -3.22585 97.3584 -3.81867 100C-3.14761 99.9447 -0.160851 99.8661 -0.160851 99.8661L78.9918 100C81.311 99.9964 83.2963 98.1366 83.3381 95.7663C83.3798 93.3478 81.4744 91.3809 79.1239 91.3844L75.061 91.388C72.5871 91.3916 70.4731 89.3193 70.5235 86.783C70.5774 84.1557 72.674 82.0353 75.254 82.0353L92.314 82.0103C94.7722 82.0103 96.8811 80.038 96.9176 77.5231C96.9506 74.9743 94.9426 72.9021 92.4618 72.9021L40.643 72.9913L25.4318 72.9913C23.1126 72.9949 21.082 71.2386 20.8612 68.8736C20.6074 66.166 22.6762 63.8867 25.2718 63.8814L39.3624 63.8653C41.8207 63.8617 43.9295 61.893 43.966 59.3781C44.0025 56.8293 41.9911 54.7518 39.5137 54.7571L37.125 54.7607C34.9623 54.7607 33.1473 52.9526 33.1646 50.7411C33.1942 47.7925 35.5325 45.4097 38.4202 45.4044L47.1318 45.3919L85.8919 45.3419C88.2146 45.3419 90.2139 43.4785 90.2452 41.0993C90.2782 38.6897 88.378 36.7263 86.031 36.7263L46.0418 36.6085L33.8409 36.5711C31.0767 36.5621 28.8479 34.2079 28.9627 31.3485C29.0479 29.1531 30.8681 27.4468 33.0134 27.4414L43.2376 27.4289L91.7246 27.3665C94.1777 27.3665 96.2917 25.3942 96.3247 22.8793C96.3612 20.3305 94.355 18.2583 91.8724 18.2583L77.1524 18.2797C74.4073 18.2833 72.1803 16.0093 72.1751 13.2C72.1751 12.0898 72.6132 11.0849 73.3225 10.3531C74.0353 9.62486 75.0141 9.17508 76.0989 9.17151L89.0995 9.15544C91.549 9.15544 93.6457 7.19209 93.6874 4.68078C93.7326 2.12842 91.7212 0.0472565 89.2351 0.050827L-3.73872 0.113289C-3.73872 0.0936584 -3.73872 0.0686722 -3.73872 0.050827L-3.81867 0.0472488Z" fill="url(#paint5_linear_29_4861)" fill-opacity="0.1"/>
<defs>
<linearGradient id="paint0_linear_29_4861" x1="128.584" y1="17.4615" x2="-0.24066" y2="-3.40404" gradientUnits="userSpaceOnUse">
<stop stop-color="#F2C964"/>
<stop offset="0.219259" stop-color="#A9E479"/>
<stop offset="0.418408" stop-color="#3DCAAC"/>
<stop offset="1" stop-color="#999999"/>
<stop offset="1" stop-color="#0130FC"/>
</linearGradient>
<linearGradient id="paint1_linear_29_4861" x1="141.572" y1="53.8277" x2="25.5786" y2="36.9861" gradientUnits="userSpaceOnUse">
<stop stop-color="#F2C964"/>
<stop offset="0.219259" stop-color="#A9E479"/>
<stop offset="0.418408" stop-color="#3DCAAC"/>
<stop offset="1" stop-color="#999999"/>
<stop offset="1" stop-color="#0130FC"/>
</linearGradient>
<linearGradient id="paint2_linear_29_4861" x1="152.569" y1="92.5291" x2="-69.8361" y2="26.8946" gradientUnits="userSpaceOnUse">
<stop stop-color="#F2C964"/>
<stop offset="0.219259" stop-color="#A9E479"/>
<stop offset="0.418408" stop-color="#3DCAAC"/>
<stop offset="1" stop-color="#999999"/>
<stop offset="1" stop-color="#0130FC"/>
</linearGradient>
<linearGradient id="paint3_linear_29_4861" x1="157.491" y1="17.4631" x2="121.139" y2="15.8352" gradientUnits="userSpaceOnUse">
<stop stop-color="#F2C964"/>
<stop offset="0.219259" stop-color="#A9E479"/>
<stop offset="0.418408" stop-color="#3DCAAC"/>
<stop offset="1" stop-color="#999999"/>
<stop offset="1" stop-color="#0130FC"/>
</linearGradient>
<linearGradient id="paint4_linear_29_4861" x1="170.217" y1="53.8291" x2="133.868" y2="52.2014" gradientUnits="userSpaceOnUse">
<stop stop-color="#F2C964"/>
<stop offset="0.219259" stop-color="#A9E479"/>
<stop offset="0.418408" stop-color="#3DCAAC"/>
<stop offset="1" stop-color="#999999"/>
<stop offset="1" stop-color="#0130FC"/>
</linearGradient>
<linearGradient id="paint5_linear_29_4861" x1="109.591" y1="45.3968" x2="-44.0361" y2="44.6702" gradientUnits="userSpaceOnUse">
<stop stop-color="#F2C964"/>
<stop offset="0.219259" stop-color="#A9E479"/>
<stop offset="0.418408" stop-color="#3DCAAC"/>
<stop offset="0.828281" stop-color="#0130FC"/>
<stop offset="1" stop-color="#999999"/>
</linearGradient>
</defs>
</svg>
