<svg width="16" height="18" viewBox="0 0 16 18" fill="none" xmlns="http://www.w3.org/2000/svg">
<path d="M2.23445 17.625C1.94665 17.6245 1.66394 17.549 1.41414 17.4061C0.851641 17.0873 0.501953 16.4686 0.501953 15.7969V2.20312C0.501953 1.52952 0.851641 0.912647 1.41414 0.593897C1.66989 0.446914 1.96043 0.371328 2.25539 0.375039C2.55034 0.378749 2.83889 0.461621 3.09086 0.614991L14.7088 7.56937C14.951 7.72119 15.1506 7.93202 15.2889 8.18209C15.4273 8.43215 15.4999 8.71326 15.4999 8.99905C15.4999 9.28485 15.4273 9.56596 15.2889 9.81602C15.1506 10.0661 14.951 10.2769 14.7088 10.4287L3.08898 17.385C2.83112 17.5409 2.53577 17.6238 2.23445 17.625Z" fill="white"/>
</svg>
