<?xml version="1.0" encoding="UTF-8"?><svg id="Layer_1" xmlns="http://www.w3.org/2000/svg" viewBox="0 0 1280 1280"><defs><style>.cls-1{fill:#fff;}.cls-1,.cls-2{stroke-width:0px;}.cls-2{fill:#1f2124;}</style></defs><rect class="cls-1" x="-26.32" y="-20.5" width="1329.8" height="1329.12"/><path class="cls-2" d="m632.09,306.76c141.86,0,265.46,75.97,330.23,188.35-61.54-127.99-186.32-215.56-330.23-215.56s-268.69,87.57-330.23,215.56c64.78-112.39,188.38-188.35,330.23-188.35Z"/><path class="cls-2" d="m632.09,970.88c-146.43,0-273.42-80.93-336.32-199.33,59.11,135.2,187.47,228.89,336.32,228.89s277.21-93.69,336.32-228.89c-62.91,118.39-189.89,199.33-336.32,199.33Z"/><path class="cls-2" d="m568.93,591.1h23.38l19.18,84.5,22.14-84.5h24.32l20.89,84.03,19.33-84.03h23.54l-30.4,108.81h-25.72l-20.42-77.48-21.36,77.48-25.57.16-29.31-108.97Z"/><path class="cls-2" d="m792.17,701c-30.71,0-55.81-23.07-55.81-55.81s25.1-55.65,55.81-55.65,55.65,23.07,55.65,55.65-24.79,55.81-55.65,55.81Zm0-19.49c19.64,0,33.2-14.19,33.2-36.32s-13.56-36.01-33.2-36.01-33.36,13.87-33.36,36.01,13.56,36.32,33.36,36.32Z"/><path class="cls-2" d="m913.54,591.1c26.19,0,39.29,15.12,39.29,33.36,0,13.25-7.33,26.66-24.79,31.34l26.03,44.12h-25.25l-24.01-42.4h-10.29v42.4h-21.83v-108.81h40.85Zm-.78,18.08h-18.24v31.96h18.24c12.16,0,17.61-6.39,17.61-16.21s-5.46-15.75-17.61-15.75Z"/><path class="cls-2" d="m1005.99,591.1v91.51h50.29v17.3h-72.12v-108.81h21.83Z"/><path class="cls-2" d="m1180,645.66c0,32.89-22.6,54.25-57.37,54.25h-38.04v-108.81h38.04c34.76,0,57.37,21.51,57.37,54.56Zm-58.15,35.7c22.92,0,35.86-13.1,35.86-35.7s-12.94-36.17-35.86-36.17h-15.43v71.87h15.43Z"/><path class="cls-2" d="m568.93,591.1h23.38l19.18,84.5,22.14-84.5h24.32l20.89,84.03,19.33-84.03h23.54l-30.4,108.81h-25.72l-20.42-77.48-21.36,77.48-25.57.16-29.31-108.97Z"/><path class="cls-2" d="m792.17,701c-30.71,0-55.81-23.07-55.81-55.81s25.1-55.65,55.81-55.65,55.65,23.07,55.65,55.65-24.79,55.81-55.65,55.81Zm0-19.49c19.64,0,33.2-14.19,33.2-36.32s-13.56-36.01-33.2-36.01-33.36,13.87-33.36,36.01,13.56,36.32,33.36,36.32Z"/><path class="cls-2" d="m913.54,591.1c26.19,0,39.29,15.12,39.29,33.36,0,13.25-7.33,26.66-24.79,31.34l26.03,44.12h-25.25l-24.01-42.4h-10.29v42.4h-21.83v-108.81h40.85Zm-.78,18.08h-18.24v31.96h18.24c12.16,0,17.61-6.39,17.61-16.21s-5.46-15.75-17.61-15.75Z"/><path class="cls-2" d="m1005.99,591.1v91.51h50.29v17.3h-72.12v-108.81h21.83Z"/><path class="cls-2" d="m1180,645.66c0,32.89-22.6,54.25-57.37,54.25h-38.04v-108.81h38.04c34.76,0,57.37,21.51,57.37,54.56Zm-58.15,35.7c22.92,0,35.86-13.1,35.86-35.7s-12.94-36.17-35.86-36.17h-15.43v71.87h15.43Z"/><path class="cls-2" d="m568.93,591.1h23.38l19.18,84.5,22.14-84.5h24.32l20.89,84.03,19.33-84.03h23.54l-30.4,108.81h-25.72l-20.42-77.48-21.36,77.48-25.57.16-29.31-108.97Z"/><path class="cls-2" d="m792.17,701c-30.71,0-55.81-23.07-55.81-55.81s25.1-55.65,55.81-55.65,55.65,23.07,55.65,55.65-24.79,55.81-55.65,55.81Zm0-19.49c19.64,0,33.2-14.19,33.2-36.32s-13.56-36.01-33.2-36.01-33.36,13.87-33.36,36.01,13.56,36.32,33.36,36.32Z"/><path class="cls-2" d="m913.54,591.1c26.19,0,39.29,15.12,39.29,33.36,0,13.25-7.33,26.66-24.79,31.34l26.03,44.12h-25.25l-24.01-42.4h-10.29v42.4h-21.83v-108.81h40.85Zm-.78,18.08h-18.24v31.96h18.24c12.16,0,17.61-6.39,17.61-16.21s-5.46-15.75-17.61-15.75Z"/><path class="cls-2" d="m1005.99,591.1v91.51h50.29v17.3h-72.12v-108.81h21.83Z"/><path class="cls-2" d="m1180,645.66c0,32.89-22.6,54.25-57.37,54.25h-38.04v-108.81h38.04c34.76,0,57.37,21.51,57.37,54.56Zm-58.15,35.7c22.92,0,35.86-13.1,35.86-35.7s-12.94-36.17-35.86-36.17h-15.43v71.87h15.43Z"/><path class="cls-2" d="m140.38,701c-22.6,0-40.06-11.85-40.38-32.42h23.39c.62,8.73,6.39,14.5,16.52,14.5s16.37-5.46,16.37-13.25c0-23.54-56.12-9.35-55.96-48.8,0-19.64,15.9-31.49,38.35-31.49s37.57,11.38,38.97,31.02h-24.01c-.47-7.17-6.24-12.78-15.59-12.94-8.58-.31-14.97,3.9-14.97,12.78,0,21.83,55.81,9.67,55.81,48.02,0,17.15-13.72,32.58-38.51,32.58Z"/><path class="cls-2" d="m197.75,591.1h79.82v17.62h-29v91.2h-21.82v-91.2h-29v-17.62Z"/><path class="cls-2" d="m466.14,591.1c26.19,0,39.29,15.12,39.29,33.36,0,13.25-7.33,26.66-24.79,31.34l26.03,44.12h-25.25l-24.01-42.4h-10.29v42.4h-21.83v-108.81h40.85Zm-.78,18.08h-18.24v31.96h18.24c12.16,0,17.61-6.39,17.61-16.21s-5.46-15.75-17.61-15.75Z"/><polygon class="cls-2" points="357.08 590.94 331.67 590.94 292.54 699.91 315.45 699.91 344.29 616.2 373.14 699.91 396.21 699.91 357.08 590.94"/><path class="cls-2" d="m140.38,701c-22.6,0-40.06-11.85-40.38-32.42h23.39c.62,8.73,6.39,14.5,16.52,14.5s16.37-5.46,16.37-13.25c0-23.54-56.12-9.35-55.96-48.8,0-19.64,15.9-31.49,38.35-31.49s37.57,11.38,38.97,31.02h-24.01c-.47-7.17-6.24-12.78-15.59-12.94-8.58-.31-14.97,3.9-14.97,12.78,0,21.83,55.81,9.67,55.81,48.02,0,17.15-13.72,32.58-38.51,32.58Z"/><path class="cls-2" d="m197.75,591.1h79.82v17.62h-29v91.2h-21.82v-91.2h-29v-17.62Z"/><path class="cls-2" d="m466.14,591.1c26.19,0,39.29,15.12,39.29,33.36,0,13.25-7.33,26.66-24.79,31.34l26.03,44.12h-25.25l-24.01-42.4h-10.29v42.4h-21.83v-108.81h40.85Zm-.78,18.08h-18.24v31.96h18.24c12.16,0,17.61-6.39,17.61-16.21s-5.46-15.75-17.61-15.75Z"/><polygon class="cls-2" points="357.08 590.94 331.67 590.94 292.54 699.91 315.45 699.91 344.29 616.2 373.14 699.91 396.21 699.91 357.08 590.94"/><path class="cls-2" d="m140.38,701c-22.6,0-40.06-11.85-40.38-32.42h23.39c.62,8.73,6.39,14.5,16.52,14.5s16.37-5.46,16.37-13.25c0-23.54-56.12-9.35-55.96-48.8,0-19.64,15.9-31.49,38.35-31.49s37.57,11.38,38.97,31.02h-24.01c-.47-7.17-6.24-12.78-15.59-12.94-8.58-.31-14.97,3.9-14.97,12.78,0,21.83,55.81,9.67,55.81,48.02,0,17.15-13.72,32.58-38.51,32.58Z"/><path class="cls-2" d="m197.75,591.1h79.82v17.62h-29v91.2h-21.82v-91.2h-29v-17.62Z"/><path class="cls-2" d="m466.14,591.1c26.19,0,39.29,15.12,39.29,33.36,0,13.25-7.33,26.66-24.79,31.34l26.03,44.12h-25.25l-24.01-42.4h-10.29v42.4h-21.83v-108.81h40.85Zm-.78,18.08h-18.24v31.96h18.24c12.16,0,17.61-6.39,17.61-16.21s-5.46-15.75-17.61-15.75Z"/><polygon class="cls-2" points="357.08 590.94 331.67 590.94 292.54 699.91 315.45 699.91 344.29 616.2 373.14 699.91 396.21 699.91 357.08 590.94"/><path class="cls-2" d="m961.63,563.29c.85-70.69,1.54-71.52,60.19-72.55-58.65-1.03-59.34-1.86-60.19-72.55-.85,70.69-1.54,71.52-60.19,72.55,58.65,1.03,59.34,1.86,60.19,72.55Z"/></svg>